<svg width="1663" height="66" viewBox="0 0 1663 66" fill="none" xmlns="http://www.w3.org/2000/svg" > <path d="M7.848 35.1167L10.566 26.1887H10.638V35.1167H12.906V23.7767H9.432L7.074 32.0207H7.02L4.536 23.7767H0.99V35.1167H3.078V26.1887H3.15L5.922 35.1167H7.848ZM19.5571 31.6787C19.5571 32.9567 18.6931 33.8207 17.5591 33.8207C16.8751 33.8207 16.4611 33.4967 16.4611 32.9567C16.4611 32.1647 17.1271 32.0027 18.0631 31.8047L19.5571 31.4807V31.6787ZM21.6631 30.0227C21.6631 27.9347 20.3131 26.9627 18.2611 26.9627C16.1551 26.9627 14.9131 28.0967 14.6431 29.7167L16.6051 29.8967C16.7851 29.1227 17.2711 28.5827 18.1711 28.5827C19.0891 28.5827 19.5571 29.1227 19.5571 30.0047V30.1847L17.3791 30.6167C15.5791 30.9767 14.3551 31.6067 14.3551 33.1187C14.3551 34.4867 15.3631 35.3147 17.0191 35.3147C18.1891 35.3147 19.2691 34.8287 19.7191 33.9107C19.9171 34.7747 20.4931 35.2967 21.3931 35.2967C22.1131 35.2967 22.5451 35.0627 22.8871 34.7927V33.6407C22.6531 33.7487 22.4371 33.8027 22.2211 33.8027C21.8791 33.8027 21.6631 33.6047 21.6631 33.1907V30.0227ZM30.9649 29.6807C30.9649 29.2307 30.8389 28.8167 30.6229 28.4747C31.0369 28.3307 31.5589 28.2587 31.9909 28.2587V26.5307C31.1269 26.5307 30.3349 27.0347 29.8849 27.6647C29.2369 27.2147 28.3369 26.9627 27.3649 26.9627C25.2769 26.9627 23.7829 27.9887 23.7829 29.6807C23.7829 30.5447 24.1969 31.2467 24.8809 31.7147C24.1069 32.0207 23.6029 32.5607 23.6029 33.2807C23.6029 33.9287 23.9809 34.5047 24.7009 34.7387C23.7649 34.8647 23.1169 35.4407 23.1169 36.2507C23.1169 37.7267 24.9889 38.2847 27.1849 38.2847C29.6509 38.2847 31.9549 37.4567 31.9549 35.4767C31.9549 34.1987 31.0549 33.2447 29.2909 33.2447H26.1229C25.5289 33.2447 25.2949 33.0107 25.2949 32.6507C25.2949 32.3987 25.4209 32.2007 25.6189 32.0747C26.1229 32.2727 26.7169 32.3627 27.3649 32.3627C29.4529 32.3627 30.9649 31.3367 30.9649 29.6807ZM25.0789 35.9267C25.0789 35.3507 25.5469 35.1167 26.1229 35.1167H28.7689C29.4889 35.1167 29.9209 35.3147 29.9209 35.8367C29.9209 36.6107 28.7689 36.9707 27.1849 36.9707C25.9069 36.9707 25.0789 36.6467 25.0789 35.9267ZM28.7689 29.6807C28.7689 30.5987 28.2109 31.0847 27.3829 31.0847C26.5729 31.0847 26.0149 30.5987 26.0149 29.6807C26.0149 28.7627 26.5729 28.2767 27.3829 28.2767C28.2109 28.2767 28.7689 28.7627 28.7689 29.6807ZM32.9102 27.1787V35.1167H35.0702V27.1787H32.9102ZM32.8742 25.8827H35.0882V23.7767H32.8742V25.8827ZM36.4148 31.1567C36.4148 33.6767 38.1608 35.3327 40.6088 35.3327C42.9668 35.3327 44.2628 33.7847 44.4428 31.8767L42.6248 31.7147C42.4628 32.9207 41.7968 33.6767 40.6088 33.6767C39.4208 33.6767 38.5928 32.7947 38.5928 31.1567C38.5928 29.5007 39.4208 28.6187 40.6088 28.6187C41.7968 28.6187 42.4628 29.3567 42.6248 30.5447L44.4428 30.4187C44.2628 28.5107 42.9668 26.9627 40.6088 26.9627C38.1608 26.9627 36.4148 28.6367 36.4148 31.1567ZM54.7718 35.1167V25.6487H58.8398V23.7767H48.5078V25.6487H52.5218V35.1167H54.7718ZM64.6971 27.2867C64.4631 27.0887 64.0671 26.9627 63.5811 26.9627C62.4831 26.9627 61.6551 27.7907 61.3671 28.6907V27.1787H59.2071V35.1167H61.3671V31.1927C61.3671 29.7527 62.1231 28.9607 63.2391 28.9607C63.7611 28.9607 64.1211 29.0687 64.5351 29.3027L64.6971 27.2867ZM65.711 27.1787V35.1167H67.871V27.1787H65.711ZM65.675 25.8827H67.889V23.7767H65.675V25.8827ZM69.2156 31.1567C69.2156 33.6767 70.9616 35.3327 73.4096 35.3327C75.7676 35.3327 77.0636 33.7847 77.2436 31.8767L75.4256 31.7147C75.2636 32.9207 74.5976 33.6767 73.4096 33.6767C72.2216 33.6767 71.3936 32.7947 71.3936 31.1567C71.3936 29.5007 72.2216 28.6187 73.4096 28.6187C74.5976 28.6187 75.2636 29.3567 75.4256 30.5447L77.2436 30.4187C77.0636 28.5107 75.7676 26.9627 73.4096 26.9627C70.9616 26.9627 69.2156 28.6367 69.2156 31.1567ZM80.7382 32.4167L81.6562 31.5707L84.3922 35.1167H86.8582L83.2402 30.3647L86.7322 27.1787H84.1222L80.7382 30.3647V23.7767H78.5782V35.1167H80.7382V32.4167ZM87.0197 32.4887C87.1637 34.4327 88.7477 35.3327 90.8177 35.3327C92.8697 35.3327 94.2737 34.4327 94.2737 32.8127C94.2737 31.3187 93.2837 30.6167 91.6097 30.3467L90.0977 30.0947C89.5217 30.0047 89.2337 29.7527 89.2337 29.3207C89.2337 28.7807 89.7377 28.4387 90.5117 28.4387C91.6457 28.4387 92.2577 28.8887 92.4017 29.7887L94.1837 29.7167C94.0397 27.9527 92.7257 26.9627 90.5297 26.9627C88.5137 26.9627 87.2357 28.0067 87.2357 29.5187C87.2357 30.9947 88.1717 31.6247 89.8637 31.8947L91.1237 32.1107C91.9157 32.2367 92.2757 32.4707 92.2757 33.0107C92.2757 33.5867 91.6277 33.8567 90.8357 33.8567C89.7377 33.8567 89.0177 33.3707 88.8917 32.4167L87.0197 32.4887Z" fill="#2B2B2B" /> <path d="M101 29.6167L104.5 32.6167L108 29.6167" stroke="#2B2B2B" /> <path d="M150.458 32.0027C150.458 30.3827 149.396 29.4827 148.028 29.2307C149.252 29.0327 150.116 28.1327 150.116 26.8547C150.116 25.0007 148.892 23.7767 146.03 23.7767H140.99V35.1167H146.318C148.964 35.1167 150.458 33.9647 150.458 32.0027ZM146.066 30.2027C147.47 30.2027 148.154 30.8147 148.154 31.7687C148.154 32.7047 147.47 33.2987 146.066 33.2987H143.186V30.2027H146.066ZM143.186 25.5947H145.886C147.236 25.5947 147.812 26.2067 147.812 27.0527C147.812 27.8987 147.236 28.4927 145.886 28.4927H143.186V25.5947ZM153.702 31.1567C153.702 29.6447 154.386 28.6007 155.7 28.6007C157.032 28.6007 157.716 29.6447 157.716 31.1567C157.716 32.6507 157.032 33.6947 155.7 33.6947C154.386 33.6947 153.702 32.6507 153.702 31.1567ZM159.894 31.1567C159.894 28.6907 158.166 26.9627 155.7 26.9627C153.252 26.9627 151.524 28.6907 151.524 31.1567C151.524 33.6227 153.252 35.3327 155.7 35.3327C158.166 35.3327 159.894 33.6227 159.894 31.1567ZM163.019 31.1567C163.019 29.6447 163.703 28.6007 165.017 28.6007C166.349 28.6007 167.033 29.6447 167.033 31.1567C167.033 32.6507 166.349 33.6947 165.017 33.6947C163.703 33.6947 163.019 32.6507 163.019 31.1567ZM169.211 31.1567C169.211 28.6907 167.483 26.9627 165.017 26.9627C162.569 26.9627 160.841 28.6907 160.841 31.1567C160.841 33.6227 162.569 35.3327 165.017 35.3327C167.483 35.3327 169.211 33.6227 169.211 31.1567ZM172.732 32.4167L173.65 31.5707L176.386 35.1167H178.852L175.234 30.3647L178.726 27.1787H176.116L172.732 30.3647V23.7767H170.572V35.1167H172.732V32.4167ZM179.014 32.4887C179.158 34.4327 180.742 35.3327 182.812 35.3327C184.864 35.3327 186.268 34.4327 186.268 32.8127C186.268 31.3187 185.278 30.6167 183.604 30.3467L182.092 30.0947C181.516 30.0047 181.228 29.7527 181.228 29.3207C181.228 28.7807 181.732 28.4387 182.506 28.4387C183.64 28.4387 184.252 28.8887 184.396 29.7887L186.178 29.7167C186.034 27.9527 184.72 26.9627 182.524 26.9627C180.508 26.9627 179.23 28.0067 179.23 29.5187C179.23 30.9947 180.166 31.6247 181.858 31.8947L183.118 32.1107C183.91 32.2367 184.27 32.4707 184.27 33.0107C184.27 33.5867 183.622 33.8567 182.83 33.8567C181.732 33.8567 181.012 33.3707 180.886 32.4167L179.014 32.4887ZM198.957 29.3027C198.723 30.1487 198.363 30.9407 197.895 31.6067L195.663 29.2667C197.301 28.4207 198.093 27.6647 198.093 26.1887C198.093 24.6947 196.995 23.5607 194.961 23.5607C193.071 23.5607 191.577 24.6767 191.577 26.4947C191.577 27.5387 192.027 28.2407 192.711 29.0147C191.181 29.8247 190.317 30.7067 190.317 32.1647C190.317 34.2167 192.027 35.3327 194.259 35.3327C195.555 35.3327 196.689 34.9187 197.643 34.2347C198.597 35.0627 199.299 35.2607 199.983 35.2607C200.631 35.2607 201.171 35.0987 201.513 34.8827V33.5327C201.135 33.6227 200.883 33.6587 200.595 33.6587C199.947 33.6587 199.569 33.3707 199.083 32.8667C199.929 31.8407 200.523 30.5987 200.865 29.3927L198.957 29.3027ZM194.349 33.6407C193.287 33.6407 192.495 33.0827 192.495 32.0747C192.495 31.1567 192.999 30.6527 193.791 30.1847L196.455 33.0287C195.843 33.4247 195.123 33.6407 194.349 33.6407ZM193.629 26.4407C193.629 25.6127 194.205 25.1087 194.961 25.1087C195.789 25.1087 196.185 25.6847 196.185 26.3147C196.185 27.1427 195.789 27.5747 194.583 28.1507C194.097 27.6107 193.629 27.1067 193.629 26.4407ZM208.086 33.3167V25.5767H209.976C212.37 25.5767 213.72 27.0167 213.72 29.4287C213.72 31.8767 212.37 33.3167 209.976 33.3167H208.086ZM205.836 35.1167H210.12C213.774 35.1167 216.042 32.9927 216.042 29.4467C216.042 25.9007 213.774 23.7767 210.12 23.7767H205.836V35.1167ZM217.453 27.1787V35.1167H219.613V27.1787H217.453ZM217.417 25.8827H219.631V23.7767H217.417V25.8827ZM228.428 29.6807C228.428 29.2307 228.302 28.8167 228.086 28.4747C228.5 28.3307 229.022 28.2587 229.454 28.2587V26.5307C228.59 26.5307 227.798 27.0347 227.348 27.6647C226.7 27.2147 225.8 26.9627 224.828 26.9627C222.74 26.9627 221.246 27.9887 221.246 29.6807C221.246 30.5447 221.66 31.2467 222.344 31.7147C221.57 32.0207 221.066 32.5607 221.066 33.2807C221.066 33.9287 221.444 34.5047 222.164 34.7387C221.228 34.8647 220.58 35.4407 220.58 36.2507C220.58 37.7267 222.452 38.2847 224.648 38.2847C227.114 38.2847 229.418 37.4567 229.418 35.4767C229.418 34.1987 228.518 33.2447 226.754 33.2447H223.586C222.992 33.2447 222.758 33.0107 222.758 32.6507C222.758 32.3987 222.884 32.2007 223.082 32.0747C223.586 32.2727 224.18 32.3627 224.828 32.3627C226.916 32.3627 228.428 31.3367 228.428 29.6807ZM222.542 35.9267C222.542 35.3507 223.01 35.1167 223.586 35.1167H226.232C226.952 35.1167 227.384 35.3147 227.384 35.8367C227.384 36.6107 226.232 36.9707 224.648 36.9707C223.37 36.9707 222.542 36.6467 222.542 35.9267ZM226.232 29.6807C226.232 30.5987 225.674 31.0847 224.846 31.0847C224.036 31.0847 223.478 30.5987 223.478 29.6807C223.478 28.7627 224.036 28.2767 224.846 28.2767C225.674 28.2767 226.232 28.7627 226.232 29.6807ZM230.373 27.1787V35.1167H232.533V27.1787H230.373ZM230.337 25.8827H232.551V23.7767H230.337V25.8827ZM234.616 33.1007C234.616 34.7927 235.642 35.3327 236.866 35.3327C237.838 35.3327 238.486 35.0807 239.062 34.6487V33.2267C238.594 33.4427 238.144 33.6047 237.712 33.6047C237.064 33.6047 236.758 33.2987 236.758 32.6147V28.6907H238.918V27.1787H236.758V24.9827H235.444L235.192 26.0627C235.012 26.8007 234.796 27.1967 234.022 27.3227L233.482 27.4127V28.6907H234.616V33.1007ZM245.057 31.6787C245.057 32.9567 244.193 33.8207 243.059 33.8207C242.375 33.8207 241.961 33.4967 241.961 32.9567C241.961 32.1647 242.627 32.0027 243.563 31.8047L245.057 31.4807V31.6787ZM247.163 30.0227C247.163 27.9347 245.813 26.9627 243.761 26.9627C241.655 26.9627 240.413 28.0967 240.143 29.7167L242.105 29.8967C242.285 29.1227 242.771 28.5827 243.671 28.5827C244.589 28.5827 245.057 29.1227 245.057 30.0047V30.1847L242.879 30.6167C241.079 30.9767 239.855 31.6067 239.855 33.1187C239.855 34.4867 240.863 35.3147 242.519 35.3147C243.689 35.3147 244.769 34.8287 245.219 33.9107C245.417 34.7747 245.993 35.2967 246.893 35.2967C247.613 35.2967 248.045 35.0627 248.387 34.7927V33.6407C248.153 33.7487 247.937 33.8027 247.721 33.8027C247.379 33.8027 247.163 33.6047 247.163 33.1907V30.0227ZM249.41 23.7767V35.1167H251.57V23.7767H249.41Z" fill="#2B2B2B" /> <path d="M259 29.6167L262.5 32.6167L266 29.6167" stroke="#2B2B2B" /> <path d="M314.222 29.3747V25.5947H316.436C318.128 25.5947 318.866 26.2787 318.866 27.5027C318.866 28.7267 318.128 29.3747 316.436 29.3747H314.222ZM314.222 31.2107H316.508C319.406 31.2107 321.062 29.8427 321.062 27.4847C321.062 25.1267 319.406 23.7767 316.508 23.7767H311.99V35.1167H314.222V31.2107ZM322.236 23.7767V35.1167H324.396V23.7767H322.236ZM330.979 31.6787C330.979 32.9567 330.115 33.8207 328.981 33.8207C328.297 33.8207 327.883 33.4967 327.883 32.9567C327.883 32.1647 328.549 32.0027 329.485 31.8047L330.979 31.4807V31.6787ZM333.085 30.0227C333.085 27.9347 331.735 26.9627 329.683 26.9627C327.577 26.9627 326.335 28.0967 326.065 29.7167L328.027 29.8967C328.207 29.1227 328.693 28.5827 329.593 28.5827C330.511 28.5827 330.979 29.1227 330.979 30.0047V30.1847L328.801 30.6167C327.001 30.9767 325.777 31.6067 325.777 33.1187C325.777 34.4867 326.785 35.3147 328.441 35.3147C329.611 35.3147 330.691 34.8287 331.141 33.9107C331.339 34.7747 331.915 35.2967 332.815 35.2967C333.535 35.2967 333.967 35.0627 334.309 34.7927V33.6407C334.075 33.7487 333.859 33.8027 333.643 33.8027C333.301 33.8027 333.085 33.6047 333.085 33.1907V30.0227ZM338.275 38.0687L342.829 27.1787H340.723L338.581 32.5967H338.509L336.349 27.1787H334.081L337.375 35.1527L336.151 38.0687H338.275ZM343.805 27.1787V35.1167H345.965V27.1787H343.805ZM343.769 25.8827H345.983V23.7767H343.769V25.8827ZM349.937 30.8687C349.937 29.5367 350.621 28.6727 351.719 28.6727C352.781 28.6727 353.267 29.3747 353.267 30.5987V35.1167H355.427V30.1667C355.427 28.4027 354.653 26.9627 352.529 26.9627C351.341 26.9627 350.333 27.5747 349.937 28.4747V27.1787H347.777V35.1167H349.937V30.8687ZM364.166 29.6807C364.166 29.2307 364.04 28.8167 363.824 28.4747C364.238 28.3307 364.76 28.2587 365.192 28.2587V26.5307C364.328 26.5307 363.536 27.0347 363.086 27.6647C362.438 27.2147 361.538 26.9627 360.566 26.9627C358.478 26.9627 356.984 27.9887 356.984 29.6807C356.984 30.5447 357.398 31.2467 358.082 31.7147C357.308 32.0207 356.804 32.5607 356.804 33.2807C356.804 33.9287 357.182 34.5047 357.902 34.7387C356.966 34.8647 356.318 35.4407 356.318 36.2507C356.318 37.7267 358.19 38.2847 360.386 38.2847C362.852 38.2847 365.156 37.4567 365.156 35.4767C365.156 34.1987 364.256 33.2447 362.492 33.2447H359.324C358.73 33.2447 358.496 33.0107 358.496 32.6507C358.496 32.3987 358.622 32.2007 358.82 32.0747C359.324 32.2727 359.918 32.3627 360.566 32.3627C362.654 32.3627 364.166 31.3367 364.166 29.6807ZM358.28 35.9267C358.28 35.3507 358.748 35.1167 359.324 35.1167H361.97C362.69 35.1167 363.122 35.3147 363.122 35.8367C363.122 36.6107 361.97 36.9707 360.386 36.9707C359.108 36.9707 358.28 36.6467 358.28 35.9267ZM361.97 29.6807C361.97 30.5987 361.412 31.0847 360.584 31.0847C359.774 31.0847 359.216 30.5987 359.216 29.6807C359.216 28.7627 359.774 28.2767 360.584 28.2767C361.412 28.2767 361.97 28.7627 361.97 29.6807ZM368.896 29.4467C368.896 32.9387 371.362 35.3327 374.584 35.3327C377.932 35.3327 379.786 33.2447 379.984 30.3647L377.824 30.2747C377.662 31.9667 376.654 33.3527 374.584 33.3527C372.568 33.3527 371.236 31.8407 371.236 29.4467C371.236 27.0527 372.568 25.5407 374.584 25.5407C376.654 25.5407 377.662 26.9267 377.824 28.6187L379.984 28.5287C379.786 25.6667 377.932 23.5607 374.584 23.5607C371.362 23.5607 368.896 25.9547 368.896 29.4467ZM386.122 31.6787C386.122 32.9567 385.258 33.8207 384.124 33.8207C383.44 33.8207 383.026 33.4967 383.026 32.9567C383.026 32.1647 383.692 32.0027 384.628 31.8047L386.122 31.4807V31.6787ZM388.228 30.0227C388.228 27.9347 386.878 26.9627 384.826 26.9627C382.72 26.9627 381.478 28.0967 381.208 29.7167L383.17 29.8967C383.35 29.1227 383.836 28.5827 384.736 28.5827C385.654 28.5827 386.122 29.1227 386.122 30.0047V30.1847L383.944 30.6167C382.144 30.9767 380.92 31.6067 380.92 33.1187C380.92 34.4867 381.928 35.3147 383.584 35.3147C384.754 35.3147 385.834 34.8287 386.284 33.9107C386.482 34.7747 387.058 35.2967 387.958 35.2967C388.678 35.2967 389.11 35.0627 389.452 34.7927V33.6407C389.218 33.7487 389.002 33.8027 388.786 33.8027C388.444 33.8027 388.228 33.6047 388.228 33.1907V30.0227ZM395.965 27.2867C395.731 27.0887 395.335 26.9627 394.849 26.9627C393.751 26.9627 392.923 27.7907 392.635 28.6907V27.1787H390.475V35.1167H392.635V31.1927C392.635 29.7527 393.391 28.9607 394.507 28.9607C395.029 28.9607 395.389 29.0687 395.803 29.3027L395.965 27.2867ZM402.653 31.3007C402.653 32.7587 401.771 33.6407 400.547 33.6407C399.197 33.6407 398.495 32.6507 398.495 31.1567C398.495 29.6447 399.197 28.6547 400.547 28.6547C401.771 28.6547 402.653 29.5547 402.653 30.9947V31.3007ZM402.635 35.1167H404.795V23.7767H402.635V28.7087C402.275 27.7367 401.303 26.9627 399.899 26.9627C397.541 26.9627 396.317 28.8167 396.317 31.1567C396.317 33.4967 397.541 35.3327 399.899 35.3327C401.303 35.3327 402.275 34.5587 402.635 33.6047V35.1167ZM406.035 32.4887C406.179 34.4327 407.763 35.3327 409.833 35.3327C411.885 35.3327 413.289 34.4327 413.289 32.8127C413.289 31.3187 412.299 30.6167 410.625 30.3467L409.113 30.0947C408.537 30.0047 408.249 29.7527 408.249 29.3207C408.249 28.7807 408.753 28.4387 409.527 28.4387C410.661 28.4387 411.273 28.8887 411.417 29.7887L413.199 29.7167C413.055 27.9527 411.741 26.9627 409.545 26.9627C407.529 26.9627 406.251 28.0067 406.251 29.5187C406.251 30.9947 407.187 31.6247 408.879 31.8947L410.139 32.1107C410.931 32.2367 411.291 32.4707 411.291 33.0107C411.291 33.5867 410.643 33.8567 409.851 33.8567C408.753 33.8567 408.033 33.3707 407.907 32.4167L406.035 32.4887Z" fill="#2B2B2B" /> <path d="M420 29.6167L423.5 32.6167L427 29.6167" stroke="#2B2B2B" /> <ellipse cx="765.05" cy="33.1569" rx="21.1454" ry="13.0334" fill="white" /> <path d="M824.456 39.7512V16.9166L819.701 39.7512H817.473L812.474 16.9166V39.7512H807.865V6.72046H814.504L818.618 26.8304L822.38 6.72046H829.065V39.7512H824.463H824.456Z" fill="#2B2B2B" /> <path d="M849.96 6.72046V29.0055C849.96 33.9051 849.563 35.691 847.976 37.6219C846.64 39.2551 844.511 40.2472 842.229 40.2472C839.947 40.2472 837.772 39.2551 836.437 37.6219C834.849 35.691 834.453 33.8594 834.453 29.0055V6.72046H839.405V28.4636C839.405 31.5851 839.505 33.0657 839.749 33.7602C840.146 34.9507 841.039 35.6452 842.229 35.6452C843.42 35.6452 844.412 34.8515 844.755 33.4625C844.9 32.8214 844.999 31.234 844.999 28.4636V6.72046H849.952H849.96Z" fill="#2B2B2B" /> <path d="M860.362 39.7512H855.409V6.72046H862.346C868.092 6.72046 870.618 9.68925 870.618 16.2832C870.618 20.5418 869.725 22.8237 867.299 24.6019L871.114 39.7588H865.864L862.743 25.9375H860.369V39.7588L860.362 39.7512ZM861.949 21.3278C863.635 21.3278 864.276 21.0836 864.818 20.2899C865.314 19.4962 865.658 18.0156 865.658 16.329C865.658 14.5431 865.314 12.9633 864.666 12.2154C864.17 11.5209 863.529 11.3225 861.941 11.3225H860.354V21.3278H861.941H861.949Z" fill="#2B2B2B" /> <path d="M880.868 39.7512H875.915V6.72046H882.852C889.194 6.72046 891.422 9.2466 891.422 16.3748C891.422 23.5029 889.194 26.0825 882.852 26.0825H880.868V39.7512ZM882.455 21.4728C885.676 21.4728 886.469 20.4349 886.469 16.3748C886.469 12.3146 885.676 11.3225 882.455 11.3225H880.868V21.4728H882.455Z" fill="#2B2B2B" /> <path d="M901.221 24.8461V39.7512H896.268V6.72046H901.221V20.2441H906.716V6.72046H911.668V39.7512H906.716V24.8461H901.221Z" fill="#2B2B2B" /> <path d="M927.214 39.7512H922.261V26.3801L916.072 6.72046H921.223L924.741 19.6946L928.16 6.72046H933.166L927.221 26.3801V39.7512H927.214Z" fill="#2B2B2B" /> <path d="M950.841 14.8407C950.543 11.8719 949.803 10.8264 947.972 10.8264C946.285 10.8264 945.201 12.1162 945.201 14.0928C945.201 16.3747 946.094 17.7103 949.612 20.9768C954.764 25.678 956 27.7615 956 31.7758C956 36.8281 952.833 40.2472 948.178 40.2472C943.522 40.2472 940.103 36.7289 939.958 31.3332L944.66 30.4937C944.812 33.9586 945.949 35.6452 948.178 35.6452C950.009 35.6452 951.2 34.2562 951.2 32.0277C951.2 30.7913 950.757 29.6008 949.91 28.4636C949.116 27.4257 948.819 27.0746 946.048 24.5485C941.889 20.6867 940.401 18.0614 940.401 14.3981C940.401 9.49843 943.522 6.22437 948.178 6.22437C952.535 6.22437 955.061 8.8955 955.656 14.1462L950.856 14.8407H950.841Z" fill="#2B2B2B" /> <path d="M822.96 59.5412V52.6802C822.983 51.6194 822.998 50.8867 823.067 50.3067C822.876 50.6806 822.792 50.8867 822.67 51.1614L822.105 52.352L818.709 59.5412H815.687L812.1 52.0544C811.978 51.8254 811.871 51.5965 811.749 51.3446C811.665 51.1538 811.566 50.9478 811.459 50.7646L811.253 50.3067C811.337 51.2836 811.36 51.4515 811.36 52.1231V59.5412H807.88V45.636H812.527L816.427 53.68C816.763 54.4279 817.076 55.1377 817.221 55.5345L817.343 55.2445L817.679 54.4966L818.076 53.6647L821.868 45.636H826.455V59.5412H822.975H822.96Z" fill="#2B2B2B" /> <path d="M833.766 56.5344L832.476 59.5337H828.622L835.231 45.6284H838.65L845.236 59.5337H841.336L839.94 56.5344H833.773H833.766ZM837.604 51.5508C837.208 50.696 837.024 50.261 836.75 49.6123C836.475 50.2762 836.414 50.4441 835.941 51.5965L835.025 53.7258H838.65L837.612 51.5584L837.604 51.5508Z" fill="#2B2B2B" /> <path d="M859.866 59.541L859.637 58.0833C857.675 59.5258 856.218 60.0218 854.027 60.0218C849.296 60.0218 846.083 57.0836 846.083 52.7487C846.083 50.6194 846.892 48.7038 848.372 47.33C849.891 45.8876 852.043 45.1626 854.691 45.1626C858.797 45.1626 861.491 46.9332 862.384 50.2454H858.629C857.965 48.5969 856.546 47.7193 854.546 47.7193C851.791 47.7193 849.769 49.7417 849.769 52.535C849.769 55.3282 851.814 57.3049 854.546 57.3049C856.462 57.3049 857.942 56.4272 858.942 54.7024H855.439V51.8863H862.315V59.5334H859.858L859.866 59.541Z" fill="#2B2B2B" /> <path d="M865.734 59.5412V45.636H869.214V59.5412H865.734Z" fill="#2B2B2B" /> <path d="M888.743 54.0998C887.743 58.0837 885.034 60.0374 880.555 60.0374C878.013 60.0374 876.006 59.4116 874.549 58.1371C873.007 56.8244 872.19 54.9241 872.19 52.7185C872.19 48.1317 875.525 45.1553 880.631 45.1553C883.073 45.1553 884.988 45.804 886.492 47.1548C887.598 48.1317 888.224 49.1315 888.537 50.49H884.782C884.073 48.7423 882.699 47.8646 880.631 47.8646C877.838 47.8646 875.876 49.8489 875.876 52.6574C875.876 55.4659 877.792 57.3281 880.547 57.3281C882.775 57.3281 884.088 56.3512 884.905 54.0998H888.743Z" fill="#2B2B2B" /> <path d="M936.929 13.1083H934.555L935.86 6.75098H940.05L936.929 13.1083Z" fill="#2B2B2B" /> <path d="M764.116 27.7954C761.179 27.7954 758.79 30.1749 758.79 33.1214C758.79 36.068 761.169 38.4475 764.116 38.4475C767.062 38.4475 769.442 36.068 769.442 33.1214C769.442 30.1749 767.062 27.7954 764.116 27.7954Z" fill="#2B2B2B" /> <path d="M782.534 33.8504C778.858 39.8144 772.267 43.7937 764.754 43.7937C756.673 43.7937 749.677 39.2068 746.204 32.5037C744.725 29.6382 743.875 26.3879 743.875 22.9452C743.875 11.5237 753.049 2.25881 764.419 2.08668C764.308 2.08668 764.207 2.08668 764.095 2.08668C746.923 2.07655 733 15.989 733 33.1518C733 50.3145 745.616 62.8702 761.645 64.1257C762.455 64.1865 763.265 64.227 764.095 64.227C764.582 64.227 765.078 64.2169 765.564 64.1865C776.347 63.3765 784.853 54.385 784.853 43.3988C784.853 39.9561 784.012 36.7058 782.524 33.8403L782.534 33.8504Z" fill="url(#paint0_linear_628_2040)" /> <path d="M767.993 2.24863C766.829 2.10687 765.644 2.02587 764.449 2.00562C753.079 2.17775 743.905 11.4426 743.905 22.8541C743.905 26.2967 744.745 29.547 746.234 32.4126C749.909 26.4486 756.501 22.4794 764.014 22.4794C772.094 22.4794 779.091 27.0663 782.564 33.7694C784.042 36.6349 784.893 39.8852 784.893 43.3279C784.893 54.3141 776.387 63.3157 765.604 64.1156C782.098 63.3562 795.241 49.7475 795.241 33.0707C795.241 16.394 783.344 4.15223 767.993 2.24863Z" fill="url(#paint1_linear_628_2040)" /> <path d="M1360.46 32.0025C1360.46 30.3825 1359.4 29.4825 1358.03 29.2305C1359.25 29.0325 1360.12 28.1325 1360.12 26.8545C1360.12 25.0005 1358.89 23.7765 1356.03 23.7765H1350.99V35.1165H1356.32C1358.96 35.1165 1360.46 33.9645 1360.46 32.0025ZM1356.07 30.2025C1357.47 30.2025 1358.15 30.8145 1358.15 31.7685C1358.15 32.7045 1357.47 33.2985 1356.07 33.2985H1353.19V30.2025H1356.07ZM1353.19 25.5945H1355.89C1357.24 25.5945 1357.81 26.2065 1357.81 27.0525C1357.81 27.8985 1357.24 28.4925 1355.89 28.4925H1353.19V25.5945ZM1367.39 27.2865C1367.16 27.0885 1366.76 26.9625 1366.28 26.9625C1365.18 26.9625 1364.35 27.7905 1364.06 28.6905V27.1785H1361.9V35.1165H1364.06V31.1925C1364.06 29.7525 1364.82 28.9605 1365.94 28.9605C1366.46 28.9605 1366.82 29.0685 1367.23 29.3025L1367.39 27.2865ZM1373.04 31.6785C1373.04 32.9565 1372.17 33.8205 1371.04 33.8205C1370.36 33.8205 1369.94 33.4965 1369.94 32.9565C1369.94 32.1645 1370.61 32.0025 1371.54 31.8045L1373.04 31.4805V31.6785ZM1375.14 30.0225C1375.14 27.9345 1373.79 26.9625 1371.74 26.9625C1369.64 26.9625 1368.39 28.0965 1368.12 29.7165L1370.09 29.8965C1370.27 29.1225 1370.75 28.5825 1371.65 28.5825C1372.57 28.5825 1373.04 29.1225 1373.04 30.0045V30.1845L1370.86 30.6165C1369.06 30.9765 1367.84 31.6065 1367.84 33.1185C1367.84 34.4865 1368.84 35.3145 1370.5 35.3145C1371.67 35.3145 1372.75 34.8285 1373.2 33.9105C1373.4 34.7745 1373.97 35.2965 1374.87 35.2965C1375.59 35.2965 1376.03 35.0625 1376.37 34.7925V33.6405C1376.13 33.7485 1375.92 33.8025 1375.7 33.8025C1375.36 33.8025 1375.14 33.6045 1375.14 33.1905V30.0225ZM1379.55 30.8685C1379.55 29.5365 1380.23 28.6725 1381.33 28.6725C1382.39 28.6725 1382.88 29.3745 1382.88 30.5985V35.1165H1385.04V30.1665C1385.04 28.4025 1384.27 26.9625 1382.14 26.9625C1380.95 26.9625 1379.95 27.5745 1379.55 28.4745V27.1785H1377.39V35.1165H1379.55V30.8685ZM1392.65 31.3005C1392.65 32.7585 1391.76 33.6405 1390.54 33.6405C1389.19 33.6405 1388.49 32.6505 1388.49 31.1565C1388.49 29.6445 1389.19 28.6545 1390.54 28.6545C1391.76 28.6545 1392.65 29.5545 1392.65 30.9945V31.3005ZM1392.63 35.1165H1394.79V23.7765H1392.63V28.7085C1392.27 27.7365 1391.3 26.9625 1389.89 26.9625C1387.53 26.9625 1386.31 28.8165 1386.31 31.1565C1386.31 33.4965 1387.53 35.3325 1389.89 35.3325C1391.3 35.3325 1392.27 34.5585 1392.63 33.6045V35.1165ZM1396.03 32.4885C1396.17 34.4325 1397.76 35.3325 1399.83 35.3325C1401.88 35.3325 1403.28 34.4325 1403.28 32.8125C1403.28 31.3185 1402.29 30.6165 1400.62 30.3465L1399.11 30.0945C1398.53 30.0045 1398.24 29.7525 1398.24 29.3205C1398.24 28.7805 1398.75 28.4385 1399.52 28.4385C1400.65 28.4385 1401.27 28.8885 1401.41 29.7885L1403.19 29.7165C1403.05 27.9525 1401.73 26.9625 1399.54 26.9625C1397.52 26.9625 1396.24 28.0065 1396.24 29.5185C1396.24 30.9945 1397.18 31.6245 1398.87 31.8945L1400.13 32.1105C1400.92 32.2365 1401.28 32.4705 1401.28 33.0105C1401.28 33.5865 1400.64 33.8565 1399.84 33.8565C1398.75 33.8565 1398.03 33.3705 1397.9 32.4165L1396.03 32.4885Z" fill="#2B2B2B" /> <path d="M1410 29.6165L1413.5 32.6165L1417 29.6165" stroke="#2B2B2B" /> <path d="M1449.99 23.7765V35.1165H1458.23V33.2445H1452.24V23.7765H1449.99ZM1464.43 31.6785C1464.43 32.9565 1463.56 33.8205 1462.43 33.8205C1461.74 33.8205 1461.33 33.4965 1461.33 32.9565C1461.33 32.1645 1462 32.0025 1462.93 31.8045L1464.43 31.4805V31.6785ZM1466.53 30.0225C1466.53 27.9345 1465.18 26.9625 1463.13 26.9625C1461.02 26.9625 1459.78 28.0965 1459.51 29.7165L1461.47 29.8965C1461.65 29.1225 1462.14 28.5825 1463.04 28.5825C1463.96 28.5825 1464.43 29.1225 1464.43 30.0045V30.1845L1462.25 30.6165C1460.45 30.9765 1459.22 31.6065 1459.22 33.1185C1459.22 34.4865 1460.23 35.3145 1461.89 35.3145C1463.06 35.3145 1464.14 34.8285 1464.59 33.9105C1464.79 34.7745 1465.36 35.2965 1466.26 35.2965C1466.98 35.2965 1467.41 35.0625 1467.76 34.7925V33.6405C1467.52 33.7485 1467.31 33.8025 1467.09 33.8025C1466.75 33.8025 1466.53 33.6045 1466.53 33.1905V30.0225ZM1468.96 33.1005C1468.96 34.7925 1469.99 35.3325 1471.21 35.3325C1472.18 35.3325 1472.83 35.0805 1473.41 34.6485V33.2265C1472.94 33.4425 1472.49 33.6045 1472.06 33.6045C1471.41 33.6045 1471.1 33.2985 1471.1 32.6145V28.6905H1473.26V27.1785H1471.1V24.9825H1469.79L1469.54 26.0625C1469.36 26.8005 1469.14 27.1965 1468.37 27.3225L1467.83 27.4125V28.6905H1468.96V33.1005ZM1480.41 32.3445C1480.11 33.2445 1479.48 33.6945 1478.41 33.6945C1477.24 33.6945 1476.33 32.8665 1476.25 31.6965H1482.21V30.9225C1482.21 28.7625 1480.88 26.9625 1478.29 26.9625C1475.91 26.9625 1474.13 28.7625 1474.13 31.2645C1474.13 33.7665 1475.89 35.3325 1478.34 35.3325C1480.38 35.3325 1481.74 34.2885 1482.16 32.5245L1480.41 32.3445ZM1476.29 30.3465C1476.49 29.3565 1477.08 28.5465 1478.27 28.5465C1479.48 28.5465 1480.03 29.4285 1480.11 30.3465H1476.29ZM1483.06 32.4885C1483.2 34.4325 1484.78 35.3325 1486.85 35.3325C1488.91 35.3325 1490.31 34.4325 1490.31 32.8125C1490.31 31.3185 1489.32 30.6165 1487.65 30.3465L1486.13 30.0945C1485.56 30.0045 1485.27 29.7525 1485.27 29.3205C1485.27 28.7805 1485.77 28.4385 1486.55 28.4385C1487.68 28.4385 1488.29 28.8885 1488.44 29.7885L1490.22 29.7165C1490.08 27.9525 1488.76 26.9625 1486.57 26.9625C1484.55 26.9625 1483.27 28.0065 1483.27 29.5185C1483.27 30.9945 1484.21 31.6245 1485.9 31.8945L1487.16 32.1105C1487.95 32.2365 1488.31 32.4705 1488.31 33.0105C1488.31 33.5865 1487.66 33.8565 1486.87 33.8565C1485.77 33.8565 1485.05 33.3705 1484.93 32.4165L1483.06 32.4885ZM1491.94 33.1005C1491.94 34.7925 1492.96 35.3325 1494.19 35.3325C1495.16 35.3325 1495.81 35.0805 1496.38 34.6485V33.2265C1495.91 33.4425 1495.46 33.6045 1495.03 33.6045C1494.38 33.6045 1494.08 33.2985 1494.08 32.6145V28.6905H1496.24V27.1785H1494.08V24.9825H1492.76L1492.51 26.0625C1492.33 26.8005 1492.12 27.1965 1491.34 27.3225L1490.8 27.4125V28.6905H1491.94V33.1005Z" fill="#2B2B2B" /> <path d="M1503 29.6165L1506.5 32.6165L1510 29.6165" stroke="#2B2B2B" /> <path d="M1560.92 27.585C1560.92 22.9165 1557.12 19.1165 1552.46 19.1165C1547.8 19.1165 1544 22.9165 1544 27.585C1544 32.2536 1547.8 36.0536 1552.46 36.0536C1554.48 36.0536 1556.34 35.337 1557.79 34.1427L1561.76 38.1165L1563 36.8788L1559.03 32.9268C1560.2 31.472 1560.92 29.6045 1560.92 27.5851L1560.92 27.585ZM1552.46 34.3165C1548.75 34.3165 1545.74 31.2982 1545.74 27.585C1545.74 23.8719 1548.75 20.8536 1552.46 20.8536C1556.17 20.8536 1559.18 23.8719 1559.18 27.585C1559.18 31.2982 1556.17 34.3165 1552.46 34.3165Z" fill="#2B2B2B" stroke="#2B2B2B" stroke-width="0.4" /> <defs> <linearGradient id="paint0_linear_628_2040" x1="794.938" y1="33.1518" x2="731.522" y2="33.1518" gradientUnits="userSpaceOnUse" > <stop offset="0.07" /> <stop offset="0.25" stop-color="#34302B" /> <stop offset="0.52" stop-color="#7B7267" /> <stop offset="0.74" stop-color="#B0A392" /> <stop offset="0.91" stop-color="#D0C1AD" /> <stop offset="1" stop-color="#DDCDB8" /> </linearGradient> <linearGradient id="paint1_linear_628_2040" x1="743.905" y1="33.0606" x2="795.231" y2="33.0606" gradientUnits="userSpaceOnUse" > <stop /> <stop offset="0.19" stop-color="#34302B" /> <stop offset="0.48" stop-color="#7B7267" /> <stop offset="0.72" stop-color="#B0A392" /> <stop offset="0.9" stop-color="#D0C1AD" /> <stop offset="1" stop-color="#DDCDB8" /> </linearGradient> </defs> </svg>