<svg width="152" height="152" viewBox="0 0 152 152" fill="none" xmlns="http://www.w3.org/2000/svg">
<path d="M79.9225 79.0568C92.5536 86.6031 108.131 88.7063 137.947 63.2016C137.276 59.8734 136.329 56.6492 135.162 53.5289C111.09 80.5014 94.6569 83.3442 80.8355 77.3696C88.5667 78.2248 96.4481 77.9243 104.792 72.331C112.916 67.1192 121.491 56.8572 130.32 43.4749C128.274 40.0543 125.928 36.8532 123.305 33.8948C116.972 48.5944 110.385 60.1392 103.359 66.6107C96.2054 73.4751 88.5782 75.0352 80.824 75.4513C95.6507 72.2733 107.843 60.3703 112.165 23.9795C108.397 21.3562 104.341 19.1258 100.042 17.3577C104.075 56.3949 93.6746 67.7201 80.2693 73.6138C91.5598 64.6461 100.435 52.6044 86.5905 13.5095C83.1468 12.9316 79.6221 12.6196 76.0165 12.6196C75.5542 12.6196 75.1036 12.6196 74.6529 12.6427C95.2 48.5482 88.5551 61.5953 78.894 72.2733C86.4518 59.6076 88.555 43.9834 62.8307 14.0064C59.5141 14.7113 56.2899 15.6705 53.1928 16.8723C80.327 41.0366 83.193 57.5043 77.1953 71.3603C78.0504 63.6292 77.75 55.7477 72.1567 47.4041C66.9333 39.2569 56.625 30.6474 43.1851 21.8069C39.7991 23.8755 36.621 26.2445 33.6857 28.8909C48.3969 35.2353 59.9533 41.8224 66.4248 48.8486C73.2893 56.002 74.8493 63.6291 75.2653 71.3834C72.0873 56.5682 60.2075 44.3879 23.886 40.0659C21.309 43.8217 19.1133 47.8664 17.3798 52.1537C56.2437 48.1784 67.5226 58.5791 73.4163 71.9497C64.4717 60.6823 52.4763 51.8302 13.6356 65.5128C13.0809 68.8757 12.792 72.3195 12.792 75.8442C12.792 76.3527 12.7919 76.8611 12.8151 77.358C48.4547 57.0652 61.444 63.6869 72.0873 73.3249C59.4794 65.7902 43.9246 63.6754 14.1903 89.0761C14.8952 92.3697 15.8428 95.5708 17.0447 98.6448C41.0125 71.8688 57.3994 69.0606 71.1745 75.0237C63.4433 74.1685 55.5619 74.469 47.2182 80.0622C39.1635 85.2279 30.658 95.3628 21.9214 108.572C23.9669 111.935 26.3128 115.101 28.9246 118.013C35.1996 103.545 41.7058 92.1732 48.6627 85.7826C55.8161 78.9182 63.4433 77.358 71.1976 76.942C56.4633 80.0969 44.3291 91.8843 39.9377 127.755C43.6589 130.344 47.6573 132.539 51.8985 134.284C48.0734 95.8482 58.4279 84.6385 71.7407 78.7795C60.5195 87.6894 51.6904 99.627 65.1535 138.121C68.6782 138.734 72.2953 139.046 75.9934 139.046C76.3169 139.046 76.629 139.046 76.9526 139.034C56.9024 103.66 63.5126 90.7171 73.1159 80.12C65.6043 92.6933 63.478 108.19 88.6592 137.774C91.9643 137.104 95.1653 136.168 98.2624 135.001C71.6598 111.114 68.8631 94.7734 74.8146 81.0214C73.9594 88.7641 74.26 96.634 79.8533 104.978C85.0074 113.009 95.096 121.48 108.247 130.205C111.645 128.183 114.834 125.86 117.781 123.26C103.336 116.996 91.9758 110.478 85.5852 103.533C78.7207 96.3797 77.1606 88.7526 76.7445 80.9983C79.911 95.7441 91.71 107.89 127.662 112.27C130.297 108.549 132.527 104.527 134.318 100.274C95.697 104.169 84.4641 93.7911 78.5935 80.4551C87.5266 91.711 99.5104 100.563 138.247 86.9382C138.883 83.3327 139.218 79.6346 139.218 75.8442C139.218 75.5784 139.218 75.301 139.218 75.0352C103.578 95.3397 90.5775 88.7063 79.9457 79.0799L79.9225 79.0568Z" fill="#C9F327"/>
<path d="M3.33961 60.4395L9.40667 61.6529L9.11777 63.0628L3.05071 61.8494L2.56529 62.173L2.06838 64.6691L0.785645 64.4149L2.24175 57.1807L3.52448 57.4349L3.016 59.9426L3.33961 60.428V60.4395Z" fill="#C9F327"/>
<path d="M11.0819 55.1932L10.6197 56.5338L3.1543 53.9451L3.61658 52.6046L6.23981 53.5176L6.77143 53.2633L7.70748 50.5707L7.45328 50.0391L4.82998 49.1262L5.29226 47.7856L12.7576 50.3742L12.2954 51.7148L9.46406 50.7325L8.93245 50.9867L7.99639 53.6909L8.25067 54.2225L11.0819 55.2048V55.1932Z" fill="#C9F327"/>
<path d="M13.6478 45.3473L15.7279 41.2795L16.8836 41.8688L13.9713 47.5545L6.93359 43.9605L9.7764 38.3904L10.932 38.9798L8.90968 42.932L9.09462 43.4867L10.4005 44.157L12.3304 40.3781L13.486 40.9675L11.5561 44.7463L13.0584 45.5206L13.6131 45.3357L13.6478 45.3473Z" fill="#C9F327"/>
<path d="M25.4809 27.0303L23.1928 29.5149L24.2328 31.5488L23.2159 32.6467L19.5063 25.0195L20.7429 23.679L28.6358 26.7761L27.6073 27.897L25.4925 27.0187L25.4809 27.0303ZM24.0248 26.7992V26.4294L21.5403 25.4124L21.2629 25.7129L22.4878 28.105H22.8346L24.0248 26.7992Z" fill="#C9F327"/>
<path d="M31.4325 24.3495L30.3462 25.2509L25.3076 19.1607L27.85 17.0574C29.4101 15.7631 30.8663 15.6822 31.8717 16.8956C32.6113 17.797 32.6228 18.7793 31.941 19.75L32.149 19.9927L35.6275 20.871L34.3216 21.9457L30.6929 21.0097L29.491 22.0035L31.4209 24.3495H31.4325ZM27.5495 18.9989L27.4918 19.5883L28.6705 21.0097L30.1035 19.8309C31.028 19.0567 31.2014 18.3748 30.7507 17.8317C30.2884 17.277 29.5835 17.3232 28.659 18.0859L27.5495 18.9989Z" fill="#C9F327"/>
<path d="M37.5351 12.2963L40.794 17.5544L39.569 18.3172L36.3101 13.059L35.7323 12.9204L33.5597 14.2609L32.8779 13.1515L39.1414 9.26855L39.8232 10.378L37.6507 11.7185L37.5119 12.2963H37.5351Z" fill="#C9F327"/>
<path d="M57.1686 10.5974C55.0076 11.2214 53.1239 9.85778 52.4883 7.62742C51.8527 5.39705 52.7079 3.24756 54.8689 2.62352C57.03 1.99947 58.9136 3.36313 59.5492 5.59349C60.1847 7.82386 59.3297 9.97335 57.1686 10.5974ZM55.2387 3.90628C53.8172 4.32231 53.4821 5.73217 53.9097 7.22294C54.3373 8.7137 55.3658 9.73066 56.7987 9.32619C58.2202 8.91017 58.5553 7.5003 58.1277 6.00954C57.7002 4.51878 56.6717 3.50181 55.2387 3.90628Z" fill="#C9F327"/>
<path d="M63.3171 8.87514L62.1846 1.05154L68.3672 0.150146L68.5521 1.44445L64.1607 2.08003L63.814 2.55384L64.022 4.00995L68.2169 3.39747L68.4019 4.69177L64.2069 5.30425L64.6923 8.67871L63.3055 8.87514H63.3171Z" fill="#C9F327"/>
<path d="M86.2216 2.26503L85.4357 8.40142L84.0027 8.21655L84.7885 2.08012L84.4303 1.61788L81.8994 1.2943L82.0612 0L89.3765 0.936058L89.2146 2.23036L86.6837 1.90678L86.2216 2.26503Z" fill="#C9F327"/>
<path d="M92.0462 9.62634L90.6826 9.25656L92.7395 1.62939L94.1032 1.9992L93.3752 4.68024L93.6641 5.18872L96.4261 5.92834L96.9345 5.63943L97.651 2.95836L99.0147 3.32817L96.9576 10.9553L95.594 10.5855L96.3798 7.69645L96.0909 7.18797L93.3405 6.44835L92.8321 6.73726L92.0462 9.62634Z" fill="#C9F327"/>
<path d="M102.007 11.4757L106.214 13.2669L105.706 14.4688L99.8232 11.9726L102.909 4.69214L108.664 7.13054L108.155 8.33237L104.064 6.59892L103.521 6.81849L102.944 8.1706L106.85 9.82314L106.341 11.025L102.435 9.37246L101.776 10.9325L101.996 11.4757H102.007Z" fill="#C9F327"/>
<path d="M121.746 21.414L124.808 17.5773L125.918 18.4556L122.728 22.4425C121.619 23.8293 119.735 23.887 118.348 22.7776C116.961 21.6682 116.603 19.8193 117.713 18.4325L120.902 14.4456L122.011 15.3238L118.937 19.1721C118.256 20.0272 118.383 21.102 119.18 21.7492C119.978 22.3847 121.064 22.2807 121.757 21.414H121.746Z" fill="#C9F327"/>
<path d="M126.438 30.0811L128.403 23.8523L128.114 23.5518L123.976 27.4925L123.063 26.5333L128.796 21.0903L130.113 22.4771L128.264 28.1975L128.553 28.4979L132.378 24.8577L133.291 25.8169L127.559 31.2599L126.438 30.0811Z" fill="#C9F327"/>
<path d="M133.971 33.5482L132.215 33.2477L130.25 34.6692L129.418 33.5251L135.832 28.9026L136.664 30.0467L133.844 32.0806L134.017 32.3232L138.848 33.0744L139.946 34.5998L135.682 33.8487L135.312 34.1145L133.417 39.049L132.411 37.6507L133.983 33.5482H133.971Z" fill="#C9F327"/>
<path d="M136.918 45.3586L140.477 39.8924L140.281 39.5226L135.242 42.2037L134.618 41.0365L141.598 37.3269L142.5 39.0142L139.183 44.0296L139.379 44.3994L144.048 41.9263L144.672 43.0935L137.692 46.8031L136.929 45.3701L136.918 45.3586Z" fill="#C9F327"/>
<path d="M139.738 52.431C138.964 50.3278 140.189 48.3517 142.361 47.5543C144.534 46.7569 146.741 47.4618 147.515 49.5766C148.29 51.6914 147.065 53.656 144.892 54.4534C142.72 55.2508 140.512 54.5458 139.738 52.431ZM146.267 50.0273C145.759 48.629 144.326 48.4095 142.87 48.941C141.414 49.4726 140.466 50.5705 140.986 51.9688C141.506 53.3671 142.928 53.5867 144.384 53.0551C145.84 52.5235 146.787 51.4257 146.267 50.0273Z" fill="#C9F327"/>
<path d="M147.285 60.093L142.315 60.3935L141.899 58.452L149.353 55.5398L149.665 56.9497L144.014 58.9836L144.084 59.284L149.319 58.972L149.677 60.6015L144.788 62.4851L144.858 62.7856L150.844 62.2887L151.133 63.6408L143.147 64.0915L142.72 62.15L147.366 60.3588L147.308 60.093H147.285Z" fill="#C9F327"/>
<path d="M143.991 72.1119L149.445 68.5179L149.411 68.1018L143.713 68.541L143.609 67.2236L151.491 66.6111L151.641 68.5179L146.591 71.7883L146.626 72.2043L151.895 71.7883L151.999 73.1057L144.118 73.7182L143.991 72.1003V72.1119Z" fill="#C9F327"/>
<path d="M148.73 90.8674L142.663 89.6771L142.94 88.2672L149.007 89.4575L149.493 89.134L149.978 86.6262L151.261 86.8805L149.84 94.1263L148.557 93.872L149.042 91.3643L148.719 90.879L148.73 90.8674Z" fill="#C9F327"/>
<path d="M141.01 96.1601L141.472 94.8196L148.949 97.3851L148.487 98.7256L145.863 97.8242L145.332 98.0785L144.407 100.783L144.662 101.314L147.285 102.216L146.823 103.556L139.346 100.991L139.808 99.6501L142.639 100.621L143.171 100.367L144.095 97.6625L143.841 97.1308L141.01 96.1601Z" fill="#C9F327"/>
<path d="M138.513 105.972L136.456 110.063L135.289 109.473L138.167 103.764L145.227 107.324L142.408 112.905L141.241 112.316L143.24 108.352L143.055 107.798L141.749 107.139L139.842 110.929L138.675 110.34L140.582 106.549L139.068 105.787L138.513 105.972Z" fill="#C9F327"/>
<path d="M126.738 124.392L129.014 121.896L127.963 119.862L128.968 118.753L132.724 126.368L131.499 127.709L123.583 124.658L124.612 123.537L126.726 124.404L126.738 124.392ZM128.194 124.612V124.982L130.69 125.987L130.968 125.675L129.731 123.283H129.384L128.194 124.6V124.612Z" fill="#C9F327"/>
<path d="M120.797 127.096L121.884 126.195L126.946 132.262L124.415 134.377C122.855 135.671 121.398 135.775 120.393 134.562C119.642 133.672 119.642 132.678 120.301 131.707L120.093 131.465L116.603 130.598L117.897 129.512L121.537 130.436L122.727 129.442L120.786 127.108L120.797 127.096ZM124.704 132.435L124.75 131.846L123.571 130.425L122.138 131.615C121.214 132.389 121.04 133.071 121.491 133.614C121.953 134.169 122.658 134.123 123.583 133.348L124.692 132.424L124.704 132.435Z" fill="#C9F327"/>
<path d="M114.754 139.173L111.472 133.938L112.697 133.175L115.979 138.41L116.556 138.537L118.718 137.185L119.411 138.294L113.159 142.2L112.466 141.091L114.627 139.739L114.754 139.161V139.173Z" fill="#C9F327"/>
<path d="M95.1312 140.964C97.2923 140.329 99.1759 141.692 99.823 143.911C100.47 146.13 99.6151 148.291 97.4656 148.927C95.3046 149.562 93.4209 148.199 92.7737 145.98C92.1265 143.761 92.9818 141.6 95.1312 140.964ZM97.0842 147.644C98.5056 147.228 98.8292 145.818 98.39 144.327C97.9509 142.836 96.9224 141.819 95.501 142.236C94.0795 142.652 93.756 144.061 94.1835 145.552C94.6227 147.043 95.6512 148.06 97.0842 147.644Z" fill="#C9F327"/>
<path d="M88.9951 142.721L90.1623 150.544L83.9797 151.469L83.7832 150.174L88.1747 149.516L88.5214 149.042L88.3018 147.586L84.1068 148.21L83.9104 146.915L88.1053 146.291L87.5968 142.917L88.9835 142.709L88.9951 142.721Z" fill="#C9F327"/>
<path d="M66.1254 149.435L66.8764 143.287L68.3096 143.46L67.5584 149.608L67.9165 150.07L70.4474 150.382L70.2856 151.677L62.959 150.775L63.1206 149.481L65.6516 149.793L66.1138 149.435H66.1254Z" fill="#C9F327"/>
<path d="M60.3114 142.108L61.675 142.467L59.6526 150.105L58.2891 149.747L58.994 147.066L58.6935 146.557L55.9315 145.829L55.4231 146.13L54.7182 148.811L53.3545 148.453L55.3768 140.814L56.7406 141.172L55.9778 144.061L56.2783 144.57L59.0402 145.298L59.5487 144.997L60.3114 142.108Z" fill="#C9F327"/>
<path d="M50.3384 140.305L46.1203 138.537L46.6288 137.335L52.5225 139.809L49.4717 147.101L43.7051 144.685L44.2136 143.483L48.3045 145.194L48.8476 144.974L49.4139 143.622L45.4963 141.981L46.0048 140.779L49.9108 142.42L50.5695 140.86L50.35 140.317L50.3384 140.305Z" fill="#C9F327"/>
<path d="M30.4972 130.448L27.4463 134.296L26.3369 133.418L29.5033 129.419C30.6012 128.021 32.4965 127.963 33.8832 129.061C35.27 130.159 35.6513 132.019 34.5534 133.406L31.387 137.404L30.2777 136.526L33.3285 132.666C34.0103 131.811 33.8716 130.725 33.0627 130.089C32.2538 129.454 31.179 129.569 30.4857 130.436L30.4972 130.448Z" fill="#C9F327"/>
<path d="M25.8053 121.827L23.8753 128.067L24.1642 128.367L28.2782 124.404L29.1912 125.351L23.494 130.829L22.165 129.454L23.9793 123.722L23.6904 123.421L19.8769 127.085L18.9639 126.137L24.6611 120.659L25.7821 121.827H25.8053Z" fill="#C9F327"/>
<path d="M18.2594 118.406L20.016 118.695L21.9805 117.262L22.8126 118.406L16.4335 123.063L15.6015 121.919L18.4096 119.874L18.2363 119.643L13.4057 118.915L12.2964 117.389L16.5722 118.117L16.942 117.852L18.8025 112.906L19.8195 114.292L18.271 118.406H18.2594Z" fill="#C9F327"/>
<path d="M15.2424 106.607L11.7177 112.096L11.9142 112.466L16.9411 109.762L17.5652 110.918L10.6083 114.673L9.69539 112.986L12.9773 107.959L12.7809 107.589L8.13525 110.097L7.51123 108.941L14.4681 105.197L15.2424 106.63V106.607Z" fill="#C9F327"/>
<path d="M12.3764 99.5C13.1623 101.603 11.9373 103.579 9.77627 104.388C7.60368 105.197 5.39646 104.492 4.61063 102.389C3.8248 100.286 5.04977 98.3097 7.2108 97.5007C9.37183 96.6918 11.5906 97.3968 12.3764 99.5ZM5.84717 101.927C6.3672 103.314 7.78863 103.545 9.24472 103.002C10.7008 102.458 11.6369 101.361 11.1168 99.9738C10.5968 98.5871 9.17538 98.3559 7.71928 98.899C6.26319 99.4422 5.32713 100.54 5.84717 101.938V101.927Z" fill="#C9F327"/>
<path d="M4.77244 91.8842L9.74163 91.5607L10.1692 93.5021L2.72695 96.449L2.4149 95.0391L8.06595 92.9705L7.99662 92.6701L2.75008 93.0167L2.39184 91.3873L7.28013 89.469L7.2108 89.1685L1.21307 89.6886L0.912598 88.3365L8.90954 87.8511L9.33719 89.7926L4.69153 91.6069L4.7493 91.8727L4.77244 91.8842Z" fill="#C9F327"/>
<path d="M8.02008 79.8544L2.5886 83.4831L2.62323 83.8991L8.32055 83.4253L8.42452 84.7427L0.543113 85.4014L0.381378 83.4946L5.40834 80.2011L5.37364 79.7851L0.103967 80.2242L0 78.9068L7.88141 78.248L8.02008 79.866V79.8544Z" fill="#C9F327"/>
</svg>
