<svg width="86" height="82" viewBox="0 0 86 82" fill="none" xmlns="http://www.w3.org/2000/svg">
<path d="M33.5696 13.5587C31.8491 12.8234 30.3933 11.9999 29.5698 11.8235C27.0847 14.7645 26.2612 18.2202 25.8936 22.2494C30.011 21.7788 31.6874 21.7788 31.6874 21.7788C31.6874 21.7788 31.4374 17.9702 33.5843 13.5587H33.5696Z" stroke="#2B2B2B" stroke-width="1.42418" stroke-miterlimit="10"/>
<path d="M25.5407 6.73499C29.0846 3.19106 33.9814 1 39.3929 1C50.2159 1 58.9948 9.77895 58.9948 20.6019C58.9948 31.4249 50.2159 40.2038 39.3929 40.2038C28.5699 40.2038 19.791 31.4249 19.791 20.6019C19.791 15.1904 21.9821 10.2936 25.526 6.7497" stroke="#2B2B2B" stroke-width="1.42418" stroke-miterlimit="10"/>
<path d="M82.5818 61.0555C82.273 60.629 81.773 60.4085 81.2436 60.4379C72.9647 61.0114 66.6709 61.1878 65.9209 60.8937C65.7297 60.8202 65.318 60.6438 64.7298 60.3938C57.3919 57.3351 47.319 53.2324 44.6573 52.953C42.9662 52.7765 37.4371 51.6148 32.555 50.5855C26.3642 49.2914 23.7908 48.762 23.2761 48.7914C22.6879 48.8356 22.1879 49.3061 21.9674 50.0414C21.5997 51.3207 22.0556 53.453 24.5702 55.2911C26.7318 56.8645 30.4669 57.8351 33.4667 58.5997C35.1578 59.0409 36.746 59.4526 37.393 59.8203C38.9664 60.732 39.4223 62.0702 39.3782 62.5701C38.8488 63.1289 35.2755 64.6289 34.0991 64.8641C33.0109 65.07 31.4668 64.9671 31.4521 64.9524C31.4227 64.9524 31.3933 64.9524 31.3639 64.9524C31.3639 63.673 31.261 62.0849 30.9522 60.9379C30.5845 59.5997 29.4816 58.6586 27.9082 58.3351C27.3347 58.2174 26.7759 58.5556 26.6142 59.1144C26.1142 60.7908 25.5701 62.6878 25.1878 64.173L23.5114 63.8936L20.5115 62.8642C20.438 62.4378 20.3645 61.9672 20.3057 61.482C20.1145 60.0556 19.8939 58.4233 19.144 57.2322C18.3058 55.8793 17.0117 55.4823 16.0706 55.4087C15.6736 55.3646 15.2912 55.497 14.9824 55.7469C14.6736 56.0116 14.4972 56.3793 14.4678 56.7763C14.3942 57.7322 14.3354 58.7762 14.2913 59.7909L13.8648 59.5556L8.83567 56.6881C8.83567 56.6881 8.76217 56.644 8.71805 56.6293C7.10049 56.1293 5.83583 56.894 5.20351 57.5557C2.77717 57.144 1.58608 58.5703 1.18905 59.2174C0.88024 59.7173 0.953772 60.3938 1.38022 60.8055C2.38017 61.776 5.6741 64.9965 6.37995 65.5994C7.20343 66.3199 17.4676 73.3196 18.644 74.1283C18.7028 74.1724 18.7616 74.1872 18.8205 74.2019C19.144 74.8489 19.3499 75.2901 19.394 75.3636V75.393C19.4675 75.4959 20.0557 76.4812 21.835 76.9664C23.4379 77.4076 35.6725 79.3634 36.2019 79.4516C36.3048 79.4663 36.4078 79.4516 36.5107 79.4222H36.5401C37.0548 79.5692 37.5989 79.731 38.1871 79.9075C39.54 80.3192 40.7163 80.6721 41.1869 80.8339C42.3045 81.2456 46.319 80.2751 54.9068 77.9076C57.8331 77.0988 61.1564 76.1871 61.6858 76.2018C62.7593 76.2312 72.6264 78.2752 80.7437 80.0251C81.0378 80.0839 81.3318 80.0692 81.5965 79.9663C81.7877 79.8927 81.9495 79.7898 82.0965 79.6575C83.2435 78.584 85.9198 75.54 85.8757 70.6726C85.8316 65.8641 83.5964 62.3348 82.6553 61.0408L82.5818 61.0555ZM23.232 65.0994L24.8496 65.3641C24.7025 65.967 24.629 66.4082 24.629 66.614C24.629 67.0552 25.0701 68.7022 25.6142 70.4962H24.6437C23.9378 69.5992 21.7174 65.9964 20.9086 64.32L23.129 65.0847C23.129 65.0847 23.1879 65.0994 23.232 65.1141V65.0994ZM8.2622 57.8057L13.2472 60.6438L14.2031 61.1731C14.1737 62.129 14.1737 63.0113 14.2031 63.7024C13.1737 63.1877 12.0414 62.5995 11.762 62.3642C11.2768 61.9525 7.70338 59.2468 6.30639 58.2027C6.70343 57.8939 7.36519 57.5704 8.2622 57.8204V57.8057ZM7.12992 64.7318C6.58583 64.2612 4.21829 61.9672 2.18898 59.982C2.15957 59.9526 2.15956 59.9232 2.17426 59.8938C2.60071 59.2027 3.46834 58.4674 5.14472 58.8056C7.04168 60.232 10.5562 62.8936 10.9973 63.2613C11.5414 63.7318 13.6737 64.7612 14.4678 65.1435C14.9236 66.3052 16.4823 69.555 17.7176 72.0843C13.9825 69.5256 7.70339 65.217 7.1446 64.7171L7.12992 64.7318ZM22.0997 75.8341C20.8645 75.4959 20.4527 74.9077 20.4086 74.8489C19.1587 72.3196 15.85 65.6141 15.5118 64.5406C15.3795 64.1289 15.35 62.8054 15.4089 60.879V60.8496C15.453 59.7173 15.5265 58.3792 15.6148 56.894C15.6148 56.791 15.6736 56.7322 15.703 56.7028C15.7324 56.6734 15.8059 56.6293 15.8942 56.644C16.5559 56.7028 17.4676 56.9822 18.0558 57.9086C18.6587 58.8791 18.8499 60.3055 19.041 61.6878C19.2028 62.8348 19.3498 63.9083 19.7322 64.7318C20.4674 66.3052 23.1879 70.8491 23.9378 71.5402C24.0408 71.6432 24.1878 71.702 24.3349 71.702L25.9524 71.7314C26.5259 73.5548 27.1142 75.2754 27.3494 75.8047C27.5406 76.2165 28.2023 76.6429 29.7169 77.2458C26.3642 76.687 22.8349 76.0841 22.0703 75.8635L22.0997 75.8341ZM84.5964 70.7021C84.6405 75.0989 82.2436 77.834 81.1995 78.8046C81.126 78.8781 81.0231 78.9075 80.9201 78.8781C76.7586 77.9811 63.0828 75.0695 61.6417 75.0401C60.9653 75.0401 58.6124 75.6577 54.5097 76.79C50.0394 78.0252 42.5398 80.0692 41.5399 79.7457C41.0399 79.5545 39.8929 79.2163 38.4665 78.7899C35.6725 77.9517 29.1581 76.0106 28.467 75.2459C27.8641 73.9225 25.8495 67.3199 25.8348 66.6287C25.8348 66.2758 26.423 63.9524 27.7171 59.5703C28.3788 59.7173 29.4375 60.1291 29.7611 61.2908C30.3051 63.276 30.0993 66.9964 30.0993 67.0258C30.0993 67.1581 30.1287 67.2758 30.2022 67.3934C30.3051 67.5552 32.8491 71.4814 33.202 71.9814C33.3932 72.2608 33.6285 72.599 37.0401 72.452C38.7018 72.3784 40.7016 72.202 42.0104 71.9961C43.5838 71.7608 45.8337 70.3785 48.4218 68.7904C50.1423 67.7463 52.0834 66.5552 53.9804 65.6141C58.3184 63.4818 60.3329 63.9671 60.3477 63.9671C60.6712 64.0554 61.0094 63.8789 61.0976 63.5554C61.1859 63.2319 61.0094 62.8936 60.6859 62.8054C60.5829 62.776 58.2743 62.1437 53.4363 64.5259C51.4952 65.4817 49.5247 66.6876 47.7895 67.761C45.4073 69.2168 43.1574 70.5991 41.8193 70.805C40.4517 71.0109 38.6429 71.1726 37.1136 71.2314C37.7753 69.9227 38.5841 68.6727 39.5105 67.5405C39.7164 67.2758 39.687 66.8934 39.4223 66.6876C39.1576 66.4817 38.7753 66.5111 38.5694 66.7758C37.4959 68.0992 36.5695 69.555 35.8343 71.0991C35.8049 71.1579 35.7902 71.2167 35.7902 71.2756C34.9961 71.2756 34.3785 71.2608 34.1285 71.1873C33.6579 70.4815 31.8051 67.614 31.3345 66.8934C31.3345 66.7317 31.3492 66.4964 31.3639 66.1876C31.3639 66.1876 33.0844 66.3199 34.3344 66.0699C34.8637 65.967 40.2605 64.2024 40.5546 62.9378C40.7752 61.9819 40.1282 60.0114 38.0106 58.7909C37.2166 58.3351 35.7019 57.938 33.7756 57.4527C30.8787 56.7028 27.2759 55.7764 25.2907 54.3353C23.4526 52.9971 22.9526 51.5266 23.0996 50.6002C23.1585 50.2031 23.3202 50.0414 23.3496 50.0267C23.879 50.0267 28.3641 50.9678 32.3051 51.7913C37.4518 52.8648 42.7751 53.9823 44.5397 54.1735C46.3925 54.3647 53.0392 56.8498 64.2739 61.5408C64.8768 61.7908 65.3033 61.9672 65.4798 62.0408C66.8032 62.5701 75.9939 62.0408 81.3465 61.6731C81.4495 61.6731 81.5524 61.7172 81.6259 61.8055C82.5082 63.0113 84.567 66.2758 84.6111 70.7315L84.5964 70.7021Z" fill="#2B2B2B" stroke="#2B2B2B" stroke-width="0.170902" stroke-miterlimit="10"/>
</svg>
