<svg width="112" height="69" viewBox="0 0 112 69" fill="none" xmlns="http://www.w3.org/2000/svg">
<mask id="path-1-inside-1_548_28469" fill="white">
<path d="M111.724 9.56517C112.111 9.05005 112.111 8.27641 111.596 7.8896L106.957 3.50638C106.828 3.37744 106.699 3.24849 106.57 3.24849C105.926 2.99061 105.281 3.24849 105.023 3.89318L102.317 10.3394C102.188 10.5973 101.93 10.8552 101.544 10.9841L96.0026 12.5314C95.7449 12.5314 95.616 12.6603 95.4871 12.7893L84.5337 22.5873C84.4048 22.7162 84.276 22.8452 84.1471 22.8452C83.5027 22.9741 82.8583 22.7162 82.6006 22.0715L79.7659 14.3359C79.7659 14.078 79.5082 13.8201 79.2504 13.6912L68.1683 8.01857C68.1683 7.88963 68.0394 7.88963 67.9105 7.88963L56.4417 5.4398H56.3129L7.47424 0.0249903C6.95873 -0.103949 6.31435 0.282871 6.18547 0.798619L0 20.9113V21.556L3.09249 37.8006C3.09249 37.9295 3.22137 38.1874 3.35025 38.3163L10.4379 46.4388C10.5668 46.5677 10.8245 46.5677 10.9534 46.6967L28.3498 53.6587C28.4787 53.7877 28.6075 53.7877 28.7364 53.7877H33.2465C33.6331 53.7877 33.8909 53.9166 34.1486 54.1745L39.8185 60.4919C40.2052 61.0077 40.8496 61.1366 41.3651 60.7498L43.9426 59.3315C44.4582 58.9446 45.1025 59.0736 45.4892 59.5893L52.4479 68.227C52.9634 68.7427 53.7366 68.7427 54.1233 68.227L61.3399 59.9755C61.5976 59.7176 61.9842 59.5887 62.3709 59.5887L71.5199 60.3623C72.0354 60.3623 72.422 60.1044 72.6798 59.7176L73.7108 57.6546C73.8397 57.2678 74.2263 57.0099 74.7418 57.0099L84.4064 57.1388C84.7931 57.0099 85.1797 57.2678 85.4374 57.6546L91.8806 68.4842C92.1384 68.7421 92.525 69 92.9116 69H96.0041C96.133 69 96.2619 68.8711 96.3907 68.8711C97.0351 68.6132 97.2929 67.9685 97.0351 67.4527L91.8806 54.6891C91.7517 54.3022 91.7517 53.9154 92.0095 53.5286L101.802 39.8636C102.059 39.4768 102.059 39.09 101.931 38.7032L99.8685 33.6752C99.7397 33.4173 99.7397 33.1594 99.8685 32.9015L101.931 24.6501C101.931 24.2633 102.188 24.0054 102.575 23.8765L107.987 21.4266C108.503 21.1688 108.889 20.653 108.632 20.0083L107.214 15.7539C107.085 15.3671 107.214 14.8513 107.472 14.5935L111.724 9.56517ZM104.766 16.5272L105.797 19.4922L101.673 21.4262C100.384 21.942 99.6112 22.9735 99.4823 24.1339L97.5492 31.9985C97.2914 32.9011 97.2914 33.8037 97.6781 34.5773L99.4824 38.8317L90.0757 51.8534C89.3024 52.8849 89.1735 54.1742 89.5602 55.3342V55.4631L93.9413 66.2927H93.8124L87.627 56.2361C86.8537 55.2046 85.8226 54.5598 84.6634 54.5598H84.2767L74.7411 54.4309C73.1946 54.4309 71.9065 55.3335 71.262 56.6229L70.7465 57.7834L62.37 57.1387H62.2412C61.2101 57.1387 60.0502 57.5255 59.4065 58.2991L59.2776 58.4281L53.2211 65.3901L47.4222 58.1701C46.7779 57.2675 45.6179 56.7518 44.4587 56.7518C43.6854 56.7518 43.041 57.0096 42.3966 57.3965L40.979 58.0411L35.9534 52.3685C35.1801 51.5949 34.278 51.2081 33.247 51.2081H29.1236L12.1132 44.3748C12.1132 44.3748 11.9843 44.3748 11.9843 44.2459L5.54117 36.7681L2.5776 21.2972L8.24752 2.73244L56.1845 8.01827L67.0089 10.3385L77.4467 15.7533L80.1531 22.9733C80.7975 24.5206 82.2151 25.4231 83.761 25.4231H84.4053C85.3075 25.2942 85.9519 24.7784 86.2097 24.5206L96.9052 14.9803L102.317 13.4331C103.348 13.0463 104.122 12.4016 104.637 11.499L104.766 11.3701L106.699 6.72891L109.019 8.92092L105.539 12.9173C104.637 13.8199 104.379 15.3665 104.765 16.5269L104.766 16.5272Z"/>
</mask>
<path d="M111.724 9.56517C112.111 9.05005 112.111 8.27641 111.596 7.8896L106.957 3.50638C106.828 3.37744 106.699 3.24849 106.57 3.24849C105.926 2.99061 105.281 3.24849 105.023 3.89318L102.317 10.3394C102.188 10.5973 101.93 10.8552 101.544 10.9841L96.0026 12.5314C95.7449 12.5314 95.616 12.6603 95.4871 12.7893L84.5337 22.5873C84.4048 22.7162 84.276 22.8452 84.1471 22.8452C83.5027 22.9741 82.8583 22.7162 82.6006 22.0715L79.7659 14.3359C79.7659 14.078 79.5082 13.8201 79.2504 13.6912L68.1683 8.01857C68.1683 7.88963 68.0394 7.88963 67.9105 7.88963L56.4417 5.4398H56.3129L7.47424 0.0249903C6.95873 -0.103949 6.31435 0.282871 6.18547 0.798619L0 20.9113V21.556L3.09249 37.8006C3.09249 37.9295 3.22137 38.1874 3.35025 38.3163L10.4379 46.4388C10.5668 46.5677 10.8245 46.5677 10.9534 46.6967L28.3498 53.6587C28.4787 53.7877 28.6075 53.7877 28.7364 53.7877H33.2465C33.6331 53.7877 33.8909 53.9166 34.1486 54.1745L39.8185 60.4919C40.2052 61.0077 40.8496 61.1366 41.3651 60.7498L43.9426 59.3315C44.4582 58.9446 45.1025 59.0736 45.4892 59.5893L52.4479 68.227C52.9634 68.7427 53.7366 68.7427 54.1233 68.227L61.3399 59.9755C61.5976 59.7176 61.9842 59.5887 62.3709 59.5887L71.5199 60.3623C72.0354 60.3623 72.422 60.1044 72.6798 59.7176L73.7108 57.6546C73.8397 57.2678 74.2263 57.0099 74.7418 57.0099L84.4064 57.1388C84.7931 57.0099 85.1797 57.2678 85.4374 57.6546L91.8806 68.4842C92.1384 68.7421 92.525 69 92.9116 69H96.0041C96.133 69 96.2619 68.8711 96.3907 68.8711C97.0351 68.6132 97.2929 67.9685 97.0351 67.4527L91.8806 54.6891C91.7517 54.3022 91.7517 53.9154 92.0095 53.5286L101.802 39.8636C102.059 39.4768 102.059 39.09 101.931 38.7032L99.8685 33.6752C99.7397 33.4173 99.7397 33.1594 99.8685 32.9015L101.931 24.6501C101.931 24.2633 102.188 24.0054 102.575 23.8765L107.987 21.4266C108.503 21.1688 108.889 20.653 108.632 20.0083L107.214 15.7539C107.085 15.3671 107.214 14.8513 107.472 14.5935L111.724 9.56517ZM104.766 16.5272L105.797 19.4922L101.673 21.4262C100.384 21.942 99.6112 22.9735 99.4823 24.1339L97.5492 31.9985C97.2914 32.9011 97.2914 33.8037 97.6781 34.5773L99.4824 38.8317L90.0757 51.8534C89.3024 52.8849 89.1735 54.1742 89.5602 55.3342V55.4631L93.9413 66.2927H93.8124L87.627 56.2361C86.8537 55.2046 85.8226 54.5598 84.6634 54.5598H84.2767L74.7411 54.4309C73.1946 54.4309 71.9065 55.3335 71.262 56.6229L70.7465 57.7834L62.37 57.1387H62.2412C61.2101 57.1387 60.0502 57.5255 59.4065 58.2991L59.2776 58.4281L53.2211 65.3901L47.4222 58.1701C46.7779 57.2675 45.6179 56.7518 44.4587 56.7518C43.6854 56.7518 43.041 57.0096 42.3966 57.3965L40.979 58.0411L35.9534 52.3685C35.1801 51.5949 34.278 51.2081 33.247 51.2081H29.1236L12.1132 44.3748C12.1132 44.3748 11.9843 44.3748 11.9843 44.2459L5.54117 36.7681L2.5776 21.2972L8.24752 2.73244L56.1845 8.01827L67.0089 10.3385L77.4467 15.7533L80.1531 22.9733C80.7975 24.5206 82.2151 25.4231 83.761 25.4231H84.4053C85.3075 25.2942 85.9519 24.7784 86.2097 24.5206L96.9052 14.9803L102.317 13.4331C103.348 13.0463 104.122 12.4016 104.637 11.499L104.766 11.3701L106.699 6.72891L109.019 8.92092L105.539 12.9173C104.637 13.8199 104.379 15.3665 104.765 16.5269L104.766 16.5272Z" fill="#2B2B2B" stroke="#DAD3C6" stroke-width="1.2" mask="url(#path-1-inside-1_548_28469)"/>
</svg>
