<svg width="60" height="60" viewBox="0 0 60 60" fill="none" xmlns="http://www.w3.org/2000/svg">
<path d="M49.2778 40.2069C49.2778 37.8592 48.8673 35.5854 48.0629 33.4182C43.8435 38.8196 37.4406 41.98 30.4795 41.98C22.09 41.98 14.4886 37.342 10.6305 29.8802C8.9805 26.687 8.14317 23.2392 8.14317 19.6437C8.14317 13.9222 10.335 8.6767 13.9305 4.70361C5.54921 9.99833 0 19.3154 0 29.913C0 45.3785 12.067 58.4388 27.4751 59.6373C28.9198 59.7522 30.0608 59.7522 31.2347 59.703C41.3316 58.9478 49.2778 50.3777 49.2778 40.2069Z" fill="#C9F327"/>
<path d="M59.6862 29.8228C59.6862 14.8006 48.4565 2.08505 33.5738 0.229847C32.4328 0.0902965 31.2917 0.00820886 30.1753 0C19.5941 0.164177 10.9502 8.93125 10.9502 19.5535C10.9502 21.9012 11.3606 24.1751 12.1651 26.3422C16.3844 20.9408 22.7873 17.7886 29.7485 17.7886C38.1379 17.7886 45.7393 22.4266 49.5975 29.8802C51.2474 33.0735 52.0848 36.5212 52.0848 40.1167C52.0848 45.4524 50.1721 50.3942 46.9871 54.2688C54.6952 48.8673 59.6862 39.9197 59.6862 29.8228Z" fill="#C9F327"/>
<path d="M29.8476 20.6533C20.194 20.6533 13.4463 29.9047 13.4463 29.9047C13.4463 29.9047 19.6111 39.1561 29.8476 39.1561C40.084 39.1561 46.2489 29.9047 46.2489 29.9047C46.2489 29.9047 39.5258 20.6533 29.8476 20.6533ZM29.8476 35.0681C26.9991 35.0681 24.6842 32.7532 24.6842 29.9047C24.6842 27.0562 26.9991 24.7413 29.8476 24.7413C32.696 24.7413 35.011 27.0562 35.011 29.9047C35.011 32.7532 32.696 35.0681 29.8476 35.0681Z" fill="#C9F327"/>
</svg>
