<svg width="74" height="106" viewBox="0 0 74 106" fill="none" xmlns="http://www.w3.org/2000/svg">
<path d="M50.7502 54.1077L57.9138 56.4434L72.4262 10.6132L42.2193 1L29.1738 43.0988" stroke="#2B2B2B" stroke-width="1.42418" stroke-miterlimit="10"/>
<path d="M34.1162 48.6958L40.055 50.6327" stroke="#2B2B2B" stroke-width="1.42418" stroke-miterlimit="10"/>
<path d="M41.408 4.37512L26.3971 2.48096L21.854 44.9928L26.6108 45.5055" stroke="#2B2B2B" stroke-width="1.42418" stroke-miterlimit="10"/>
<path d="M25.9126 6.38281L14.8467 6.98097L17.396 48.3819L23.5769 48.2252" stroke="#2B2B2B" stroke-width="1.42418" stroke-miterlimit="10"/>
<path d="M51.0352 26.5355C51.5479 25.7949 52.9863 24.1002 54.9801 24.741C56.504 25.2253 57.5294 26.8061 57.2303 28.3727C57.1876 28.6148 57.1164 28.8427 57.0167 29.0706C56.4328 30.4805 55.1368 31.4062 53.912 32.2322C53.499 32.5171 53.0717 32.7877 52.6587 33.044" stroke="#2B2B2B" stroke-width="1.42418" stroke-linecap="round" stroke-linejoin="round"/>
<path d="M45.31 30.8076C45.2673 30.6794 45.3385 29.6113 45.2815 29.4831C44.7546 28.1016 44.2419 26.592 44.5837 25.1109C44.6406 24.8687 44.7118 24.6409 44.8115 24.413C44.8258 24.3703 44.8542 24.3276 44.8685 24.2991" stroke="#2B2B2B" stroke-width="1.42418" stroke-linecap="round" stroke-linejoin="round"/>
<path d="M64.5649 17.0644C64.4652 16.865 64.3655 16.6799 64.2658 16.4805C63.9098 15.7684 63.568 15.0421 63.2831 14.3015C63.0553 13.6749 62.8132 13.0055 62.9698 12.3361C62.9983 12.2222 63.0268 12.1225 63.0695 12.0228C63.3686 11.3677 64.1519 11.0544 64.8355 11.268C65.7897 11.5671 65.8324 12.6779 65.8182 13.0197C66.0033 12.7349 66.6727 11.8519 67.6269 12.151C68.3105 12.3646 68.7805 13.0767 68.6381 13.7888C68.6238 13.9027 68.5811 14.0024 68.5384 14.1021C68.282 14.743 67.6981 15.156 67.1427 15.5263C66.4875 15.9678 65.7755 16.3666 65.0776 16.7369C64.8782 16.8365 64.6931 16.9362 64.4937 17.0359" stroke="#2B2B2B" stroke-width="1.42418" stroke-linecap="round" stroke-linejoin="round"/>
<path d="M44.5839 36.9036C44.3845 37.4448 44.1709 38.0287 43.9715 38.698C43.1597 41.5464 41.5361 45.6908 40.6816 47.8128C40.6532 47.8413 40.0408 49.3794 40.0408 49.3794C38.816 52.3132 37.5484 54.8055 36.4518 55.8167C34.3725 57.7393 31.4957 57.483 30.3421 57.2694C30.5415 56.5573 30.7978 55.774 31.1254 54.9479C31.2108 54.7485 31.2963 54.5492 31.396 54.3355C32.6065 52.1138 33.162 51.2593 33.0053 51.4017C33.0338 51.359 33.1335 51.2023 33.2759 50.9745C32.635 51.3875 31.9799 51.7008 31.339 52.0711C31.0257 52.6408 30.7266 53.1819 30.4845 53.6804C30.4133 53.7516 30.1285 54.4637 30.1 54.5349C28.4906 58.5369 28.5476 61.5561 28.5476 61.6843C28.5476 61.9834 28.804 62.2255 29.1173 62.2112C29.4164 62.2112 29.6585 61.9549 29.6442 61.6416C29.6442 61.6273 29.6158 60.3171 30.0572 58.3232C31.3533 58.5796 34.6858 58.9214 37.1782 56.6C39.7844 54.1931 44.8972 40.6919 45.4099 36.989C44.9827 37.046 44.826 37.1314 44.5554 36.8608L44.5839 36.9036Z" fill="#2B2B2B" stroke="#2B2B2B" stroke-width="0.356045" stroke-miterlimit="10"/>
<path d="M50.5939 61.8405C50.5939 61.8405 50.5369 61.9829 50.4942 62.0541C50.423 62.1965 50.4372 61.9829 50.3091 62.0256C50.2806 62.1823 50.1097 62.6095 50.0812 62.7092C49.8676 63.464 48.1301 65.23 46.122 67.0387C47.304 65.4436 48.5715 63.5352 49.2552 61.812C49.597 60.6726 51.2348 52.8539 52.2175 48.211C53.0435 44.2945 53.6844 40.5632 54.0546 39.139C53.8837 39.1817 53.6986 39.1817 53.4992 39.139C53.3141 39.082 53.2144 38.7118 53.072 38.5693C52.6874 40.0362 51.8899 44.0382 51.1351 48.0117C50.8787 49.3646 50.6081 50.7461 50.3518 52.0991C50.3518 52.1418 50.3375 52.1703 50.3233 52.213C49.5542 56.1722 48.8137 59.8039 48.4007 61.0287C47.5889 63.3928 45.2675 66.3836 43.886 68.1781C43.5869 68.5626 43.3448 68.8759 43.1597 69.118C43.0172 69.3032 42.5615 69.8443 41.8209 70.6989L41.7782 70.7273C41.7782 70.7273 41.6643 70.8413 41.6358 70.9125C39.3713 73.5045 34.7428 78.6885 28.4479 85.6812C27.1946 87.0769 26.2689 88.7575 25.7562 90.5662L22.5518 101.888C22.4236 102.33 22.153 102.714 21.7827 102.971C20.1591 104.082 15.3596 104.58 9.37809 101.191C5.9743 99.2679 3.93772 97.2029 2.49929 95.3514C2.12901 95.3514 1.84417 95.209 1.6163 95.0239C1.57358 95.0951 1.53085 95.1521 1.47388 95.209C1.38843 95.2945 1.28874 95.3514 1.1748 95.4226C2.59899 97.4877 4.84919 99.8946 8.8369 102.145C9.43505 102.487 10.019 102.786 10.6029 103.056C16.2426 105.691 20.6718 105.064 22.4093 103.882C22.9933 103.484 23.4205 102.885 23.6057 102.188L26.8101 90.8653C27.28 89.2275 28.1203 87.6893 29.2597 86.4218C32.5922 82.7189 39.5138 75.0141 42.5757 71.5107C43.0315 71.1404 44.7547 69.7446 46.5207 68.1781C50.7505 64.4182 51.0354 63.3786 51.1351 63.0368C51.2775 62.4956 51.2917 62.3816 51.5766 61.1568C51.3487 61.5983 50.7933 61.4274 50.5939 61.8832V61.8405Z" fill="#2B2B2B" stroke="#2B2B2B" stroke-width="0.356045" stroke-miterlimit="10"/>
<path d="M52.0037 46.346C53.6558 39.0826 54.0403 37.7012 53.3282 35.2089C51.0353 27.205 48.5999 16.0679 48.2724 14.4728C47.8451 12.3793 43.6438 15.9824 44.7404 23.1176C45.0537 25.1399 45.4383 31.6912 45.367 34.098C45.367 34.3544 45.4098 34.5965 45.367 34.8528C45.2674 35.5364 45.011 37.1173 44.2847 39.6239" stroke="#2B2B2B" stroke-width="1.42418" stroke-miterlimit="10"/>
<path d="M29.1741 61.271C29.3877 58.3229 30.1995 54.6058 33.6745 49.3648C37.1495 44.1239 42.6611 37.0029 40.71 32.6734C38.7589 28.3439 38.1607 34.0976 30.2423 42.0446C22.3238 49.9915 19.0055 50.4757 14.8326 61.0146C10.6598 71.5536 16.328 76.5952 5.76058 87.2053C3.86642 89.1137 1.68742 90.5237 1.18896 91.9336C0.476869 93.9275 1.95802 95.6507 2.64162 96.2916" stroke="#2B2B2B" stroke-width="1.42418" stroke-miterlimit="10"/>
<path d="M37.8902 49.9346C35.1985 52.5978 33.6034 54.1786 30.2139 56.1725" stroke="#2B2B2B" stroke-width="1.42418" stroke-miterlimit="10"/>
<path d="M52.5874 54.7056L50.793 62.2395" stroke="#2B2B2B" stroke-width="1.42418" stroke-miterlimit="10"/>
<path d="M55.4928 55.5171C53.4847 57.2546 50.793 62.2392 50.793 62.2392" stroke="#2B2B2B" stroke-width="1.42418" stroke-miterlimit="10"/>
<path d="M64.0948 36.9037C72.4832 31.1642 66.2453 38.57 60.7622 47.2147" stroke="#2B2B2B" stroke-width="1.42418" stroke-miterlimit="10"/>
</svg>
