<svg width="73" height="127" viewBox="0 0 73 127" fill="none" xmlns="http://www.w3.org/2000/svg">
<path d="M6.59099 57.0341C6.71777 57.2243 6.84455 57.3986 6.98717 57.5888C7.24073 57.9216 7.4943 58.2543 7.74786 58.5871C7.89048 58.7773 8.04897 58.9674 8.20744 59.1576C8.461 59.4746 8.73038 59.7757 8.98394 60.0768C9.15826 60.2669 9.31674 60.473 9.49106 60.6631C9.74462 60.9484 10.014 61.2178 10.2834 61.503C10.4736 61.6932 10.6637 61.8992 10.8539 62.0894C11.1233 62.3429 11.3927 62.5965 11.6621 62.85C11.8681 63.0402 12.0741 63.2462 12.296 63.4364C13.2151 64.2446 14.1818 65.0211 15.1802 65.7342C15.8616 66.2255 16.5747 66.685 17.2879 67.1288C17.4305 67.2238 17.589 67.3031 17.7316 67.3982C18.3179 67.7468 18.9043 68.0796 19.5223 68.3965C19.7125 68.4916 19.8868 68.5867 20.077 68.6818C21.5666 69.4266 23.1038 70.0764 24.6885 70.6152C24.9421 70.6944 25.1956 70.7736 25.4333 70.8529C26.0039 71.0272 26.5902 71.2015 27.1607 71.3441C27.4142 71.4075 27.6836 71.4868 27.9372 71.5501C28.7137 71.7403 29.5061 71.8988 30.3143 72.0256C30.5678 72.0731 30.8214 72.0889 31.075 72.1365C32.7706 72.3742 34.4979 72.5327 36.2728 72.5327C43.2932 72.5327 49.8381 70.5042 55.4004 67.0495C54.4179 66.2572 53.3878 65.544 52.3261 64.8785C47.5719 67.5566 42.1046 69.0938 36.2728 69.0938C34.9417 69.0938 33.6264 68.9987 32.3269 68.8403C32.2001 68.8403 32.0575 68.8086 31.9307 68.7927C31.5662 68.7452 31.2017 68.6977 30.8373 68.6343C30.4569 68.5709 30.0766 68.4916 29.6804 68.4124C29.1733 68.3015 28.6662 68.1905 28.1591 68.0638C27.7787 67.9687 27.3984 67.8736 27.0181 67.7627C26.7011 67.6676 26.3683 67.5725 26.0514 67.4616C25.671 67.3348 25.3066 67.208 24.9262 67.0654C24.6568 66.9703 24.3716 66.8752 24.1022 66.7643C23.5158 66.5266 22.9453 66.2889 22.3907 66.0195C22.1371 65.8927 21.8836 65.7659 21.63 65.6391C21.2338 65.449 20.8535 65.243 20.4732 65.0369C20.2355 64.9102 20.0136 64.7834 19.7917 64.6566C19.2371 64.3238 18.6824 63.991 18.1436 63.6424C18.0961 63.6107 18.0644 63.5948 18.0169 63.5631C17.0185 62.8817 16.0518 62.1528 15.1327 61.3762C15.0217 61.297 14.9266 61.2019 14.8316 61.1068C14.5463 60.8691 14.2769 60.6156 14.0075 60.3779C13.8649 60.2352 13.7064 60.0926 13.5638 59.95C13.2944 59.6964 13.0408 59.4429 12.7873 59.1735C12.6446 59.0309 12.502 58.8724 12.3594 58.7139C12.1058 58.4445 11.8681 58.1909 11.6304 57.9215C11.4878 57.7631 11.3452 57.6046 11.2184 57.4303C10.9965 57.1609 10.7588 56.8915 10.5528 56.6062C10.4102 56.4319 10.2834 56.2576 10.1408 56.0833C10.0616 55.9723 9.96648 55.8614 9.88724 55.7505C5.8462 50.299 3.45328 43.564 3.45328 36.2743C3.45328 18.1768 18.1753 3.43884 36.2887 3.43884C54.4021 3.43884 69.1241 18.1609 69.1241 36.2743C69.1241 45.4973 65.2891 53.8171 59.1562 59.7915C60.0912 60.4729 60.9786 61.2178 61.8502 61.9784C68.4585 55.4018 72.5788 46.3214 72.5788 36.2743C72.5788 16.2751 56.3037 0 36.3045 0C16.3053 0 0.0302734 16.2751 0.0302734 36.2743C0.0302734 43.5481 2.18547 50.3149 5.89371 55.9882C6.13142 56.3527 6.38498 56.7172 6.63853 57.0816L6.59099 57.0341Z" fill="#C9F327"/>
<path d="M68.9988 75.1796C68.8403 74.8468 68.6818 74.514 68.5075 74.1971C68.3649 73.9277 68.2381 73.6741 68.0955 73.4205C67.9053 73.0877 67.7152 72.7391 67.525 72.4063C67.3824 72.1845 67.2397 71.9468 67.1129 71.7249C66.8911 71.3763 66.6851 71.0276 66.4474 70.679C66.3365 70.5047 66.2097 70.3303 66.0829 70.156C65.1637 68.8407 64.1654 67.5729 63.0877 66.4002C63.0085 66.3052 62.9293 66.2101 62.8342 66.115C62.5331 65.798 62.2162 65.4811 61.9151 65.1642C61.7566 65.0057 61.5981 64.8314 61.4238 64.6729C61.1386 64.3876 60.8374 64.1182 60.5205 63.8488C59.427 62.8663 58.2702 61.9472 57.0658 61.1073C56.527 60.7269 55.9882 60.3624 55.4336 60.0138C55.2275 59.887 55.0057 59.7444 54.7997 59.6176C54.245 59.2848 53.6904 58.9679 53.104 58.6668C52.9139 58.5717 52.7237 58.4608 52.5335 58.3657C51.8046 58.0012 51.0597 57.6526 50.2991 57.3356C50.0455 57.2247 49.792 57.1296 49.5384 57.0345C49.0313 56.8285 48.5083 56.6384 47.9854 56.4482C47.6367 56.3214 47.2723 56.2105 46.9236 56.0995C46.4799 55.9569 46.0203 55.8301 45.5766 55.7192C45.1963 55.6241 44.8159 55.5132 44.4197 55.4181C41.7891 54.8159 39.0634 54.4673 36.2584 54.4673C29.2381 54.4673 22.6932 56.4799 17.1308 59.9504C18.0975 60.7428 19.1276 61.4717 20.1894 62.1373C24.9435 59.4592 30.4267 57.922 36.2584 57.922C39 57.922 41.6465 58.2706 44.182 58.9045C44.5941 58.9996 44.9903 59.1105 45.4023 59.2373C45.7509 59.3324 46.0996 59.4433 46.4324 59.5542C46.9236 59.7127 47.4307 59.887 47.9061 60.0772C48.1914 60.1881 48.4608 60.2991 48.7302 60.41C49.1264 60.5685 49.5225 60.7428 49.9187 60.9171C50.1881 61.0439 50.4417 61.1548 50.7111 61.2816C51.1706 61.5035 51.6144 61.7411 52.0581 61.9788C52.2324 62.0739 52.4068 62.169 52.5811 62.2641C53.1674 62.5969 53.7537 62.9614 54.3242 63.3417C54.3876 63.3734 54.451 63.421 54.4986 63.4527C55.497 64.1341 56.4636 64.8472 57.3986 65.6396C57.5254 65.7505 57.6363 65.8614 57.7631 65.9565C58.0484 66.2101 58.3336 66.4478 58.6189 66.7172C58.7615 66.844 58.9041 66.9866 59.0467 67.1292C59.332 67.3986 59.6172 67.6839 59.8866 67.9691C60.0134 68.0959 60.1402 68.2385 60.2669 68.3653C60.5522 68.6664 60.8216 68.9675 61.091 69.2686C61.202 69.3954 61.3129 69.538 61.4238 69.6648C61.6932 69.9817 61.9626 70.2986 62.2162 70.6314C62.3112 70.7582 62.4063 70.9008 62.5173 71.0276C62.7708 71.3604 63.0244 71.709 63.2621 72.0577C63.3572 72.1845 63.4364 72.3271 63.5315 72.4697C63.7692 72.8184 64.0069 73.1828 64.2287 73.5473C64.3238 73.6899 64.4031 73.8484 64.4823 73.991C64.7042 74.3555 64.9102 74.7042 65.1162 75.0845C65.2113 75.243 65.2905 75.4173 65.3697 75.5758C65.5441 75.9086 65.7343 76.2572 65.8927 76.59C67.9529 80.8687 69.1097 85.6704 69.1097 90.7416C69.1097 108.839 54.3877 123.577 36.2743 123.577C18.1609 123.577 3.43887 108.855 3.43887 90.7416C3.43887 81.5343 7.25806 73.1987 13.4068 67.2243C12.4718 66.5429 11.5843 65.798 10.7286 65.0215C4.12031 71.5981 0 80.6786 0 90.7257C0 110.725 16.2751 127 36.2743 127C56.2735 127 72.5485 110.725 72.5485 90.7257C72.5485 85.4803 71.4234 80.5043 69.4108 76.0036C69.284 75.7025 69.1414 75.4173 68.9988 75.1162V75.1796Z" fill="#C9F327"/>
<path d="M46.4954 106.24V94.1642C46.5271 92.2943 46.5747 91.0106 46.6856 89.9806C46.3529 90.6461 46.2102 91.0106 45.9884 91.486L44.99 93.5779L38.9997 106.24H33.6751L27.3679 93.0549C27.146 92.6587 26.9717 92.2467 26.7498 91.803C26.6072 91.4702 26.417 91.1057 26.2427 90.7729L25.8783 89.9647C26.0209 91.692 26.0684 91.9773 26.0684 93.1658V106.24H19.9355V81.7559H28.1285L34.9904 95.9233C35.5767 97.2386 36.1314 98.4905 36.385 99.1878L36.6068 98.6807L37.1931 97.3653L37.8904 95.8916L44.5779 81.7559H52.66V106.24H46.5272H46.4954Z" fill="#C9F327"/>
<path d="M46.4954 45.2594V33.1838C46.5271 31.3138 46.5747 30.0302 46.6856 29.0001C46.3529 29.6657 46.2102 30.0302 45.9884 30.5056L44.99 32.5974L38.9997 45.2594H33.6751L27.3679 32.0745C27.146 31.6783 26.9717 31.2663 26.7498 30.8225C26.6072 30.4897 26.417 30.1252 26.2427 29.7925L25.8783 28.9843C26.0209 30.7116 26.0684 30.9969 26.0684 32.1854V45.2594H19.9355V20.7754H28.1285L34.9904 34.9428C35.5767 36.2581 36.1314 37.51 36.385 38.2073L36.6068 37.7002L37.1931 36.3849L37.8904 34.9111L44.5779 20.7754H52.66V45.2594H46.5272H46.4954Z" fill="#C9F327"/>
</svg>
