<svg width="75" height="33" viewBox="0 0 75 33" fill="none" xmlns="http://www.w3.org/2000/svg">
<path d="M16.4018 19.2577C17.9704 19.2577 19.242 17.986 19.242 16.4174C19.242 14.8488 17.9704 13.5771 16.4018 13.5771C14.8332 13.5771 13.5615 14.8488 13.5615 16.4174C13.5615 17.986 14.8332 19.2577 16.4018 19.2577Z" fill="#C9F327"/>
<path d="M26.4079 18.3466C24.093 21.31 20.5714 23.0503 16.7461 23.0503C12.1409 23.0503 7.96259 20.5056 5.8447 16.4011C4.94173 14.6445 4.47384 12.7564 4.47384 10.7781C4.47384 7.63408 5.68054 4.75277 7.65066 2.56921C3.04549 5.47515 0 10.5975 0 16.4176C0 24.9137 6.63277 32.0883 15.0961 32.7532C15.8924 32.8106 16.5162 32.8189 17.1565 32.786C22.7057 32.3674 27.0646 27.6637 27.0646 22.0735C27.0646 20.7847 26.843 19.5287 26.3997 18.3466H26.4079Z" fill="#C9F327"/>
<path d="M74.7417 13.3312H32.5154C31.2184 6.46039 25.6035 1.00968 18.4536 0.123128C17.8297 0.0492481 17.1976 0 16.582 0C10.7701 0.0902974 6.02539 4.90889 6.02539 10.7454C6.02539 12.0342 6.24703 13.2819 6.69031 14.4722C9.0052 11.5088 12.5268 9.76854 16.3521 9.76854C20.9573 9.76854 25.1356 12.3133 27.2535 16.4095C28.1565 18.1662 28.6244 20.0542 28.6244 22.0326C28.6244 24.9631 27.5736 27.6803 25.8252 29.8064C29.2483 27.4094 31.7027 23.7236 32.5154 19.4632H52.1099V29.6668H55.4345V22.5826C55.4345 21.9423 55.4181 21.7863 55.336 20.8505L55.533 21.2856C55.6315 21.4662 55.73 21.6632 55.8121 21.8438C55.9352 22.0818 56.0338 22.3035 56.1487 22.5169L59.5718 29.6586H62.4613L65.7038 22.796L66.2374 21.6632C66.3605 21.4005 66.4344 21.2035 66.615 20.8505C66.5575 21.4087 66.5329 22.1065 66.5165 23.1161V29.6586H69.8411V19.455H74.7499V13.3148L74.7417 13.3312ZM61.8292 24.0602L61.4516 24.8564L61.1315 25.5706L61.0165 25.8497C60.877 25.4721 60.5815 24.799 60.2613 24.0766L58.0285 19.4632H64.0046L61.8374 24.052L61.8292 24.0602Z" fill="#C9F327"/>
</svg>
