<svg enable-background="new 0 0 62.2 62.2" viewBox="0 0 62.2 62.2" xmlns="http://www.w3.org/2000/svg" xmlns:xlink="http://www.w3.org/1999/xlink"><linearGradient id="a" gradientUnits="userSpaceOnUse" x1="61.938" x2="-1.478" y1="31.15" y2="31.15"><stop offset=".07"/><stop offset=".25" stop-color="#34302b"/><stop offset=".52" stop-color="#7b7267"/><stop offset=".74" stop-color="#b0a392"/><stop offset=".91" stop-color="#d0c1ad"/><stop offset="1" stop-color="#ddcdb8"/></linearGradient><linearGradient id="b" gradientUnits="userSpaceOnUse" x1="10.9" x2="62.2" y1="31.1" y2="31.1"><stop offset="0"/><stop offset=".19" stop-color="#34302b"/><stop offset=".48" stop-color="#7b7267"/><stop offset=".72" stop-color="#b0a392"/><stop offset=".9" stop-color="#d0c1ad"/><stop offset="1" stop-color="#ddcdb8"/></linearGradient><ellipse cx="32" cy="31.2" fill="#fff" rx="21.1" ry="13"/><path d="m31.1 25.8c-2.9 0-5.3 2.4-5.3 5.3s2.4 5.3 5.3 5.3 5.3-2.4 5.3-5.3-2.3-5.3-5.3-5.3z" fill="#2b2b2b"/><path d="m49.5 31.8c-3.7 6-10.3 9.9-17.8 9.9-8.1 0-15.1-4.6-18.6-11.3-1.5-2.9-2.3-6.1-2.3-9.6.1-11.3 9.2-20.5 20.6-20.7-.1 0-.2 0-.3 0-17.2 0-31.1 13.9-31.1 31 0 17.2 12.6 29.7 28.6 31 .8.1 1.6.1 2.4.1h1.5c10.8-.8 19.3-9.8 19.3-20.8.1-3.4-.8-6.7-2.3-9.6z" fill="url(#a)"/><path d="m35 .2c-1.2-.1-2.4-.2-3.6-.2-11.3.2-20.5 9.4-20.5 20.8 0 3.4.8 6.7 2.3 9.6 3.7-6 10.3-9.9 17.8-9.9 8.1 0 15.1 4.6 18.6 11.3 1.5 2.9 2.3 6.1 2.3 9.6 0 11-8.5 20-19.3 20.8 16.5-.8 29.6-14.4 29.6-31 0-16.8-11.9-29.1-27.2-31z" fill="url(#b)"/></svg>