<svg width="36" height="212" viewBox="0 0 36 212" fill="none" xmlns="http://www.w3.org/2000/svg">
<path d="M28.8676 -2.83881e-07L31.0014 -1.9061e-07L31.0014 7.97852L28.8676 7.97852L28.8676 -2.83881e-07Z" fill="#8C6741"/>
<path d="M28.6171 27.3072L29.1111 27.8202L29.1111 32.2852L28.6171 32.7792L24.2661 32.7792L24.2661 34.3752L35.0961 34.3752L35.0961 32.7792L31.1061 32.7792L30.5931 32.2852L30.5931 27.8202L31.1061 27.3072L35.0961 27.3072L35.0961 25.7112L24.2661 25.7112L24.2661 27.3072L28.6171 27.3072Z" fill="#8C6741"/>
<path d="M24.2661 47.1861L24.2661 48.9151L35.0961 44.6401L35.0961 42.6071L24.2661 38.3131L24.2661 40.0231L27.4391 41.2201L27.4391 45.9891L24.2661 47.1861ZM28.8261 42.1701L29.1301 41.8661L33.0441 43.3481L33.0441 43.8611L29.1491 45.3431L28.8261 45.0201L28.8261 42.1701Z" fill="#8C6741"/>
<path d="M24.2661 61.517L35.0961 61.517L35.0961 60.016L27.2681 60.016L27.2681 59.522L35.0961 55.057L35.0961 52.853L24.2661 52.853L24.2661 54.354L32.6451 54.354L32.6451 54.848L24.2661 59.6739L24.2661 61.517Z" fill="#8C6741"/>
<path d="M24.2661 75.0879L35.0961 75.0879L35.0961 73.5869L27.2681 73.5869L27.2681 73.0928L35.0961 68.6279L35.0961 66.4239L24.2661 66.4239L24.2661 67.9248L32.6451 67.9249L32.6451 68.4189L24.2661 73.2448L24.2661 75.0879Z" fill="#8C6741"/>
<path d="M24.2661 87.8987L24.2661 89.6278L35.0961 85.3528L35.0961 83.3197L24.2661 79.0257L24.2661 80.7357L27.4391 81.9328L27.4391 86.7018L24.2661 87.8987ZM28.8261 82.8828L29.1301 82.5788L33.0441 84.0608L33.0441 84.5738L29.1491 86.0558L28.8261 85.7327L28.8261 82.8828Z" fill="#8C6741"/>
<path d="M28.6171 95.1617L29.1111 95.6747L29.1111 100.14L28.6171 100.634L24.2661 100.634L24.2661 102.23L35.0961 102.23L35.0961 100.634L31.1061 100.634L30.5931 100.14L30.5931 95.6747L31.1061 95.1617L35.0961 95.1617L35.0961 93.5657L24.2661 93.5657L24.2661 95.1617L28.6171 95.1617Z" fill="#8C6741"/>
<path d="M27.4961 126.103L33.2151 127.68L33.2151 128.06L24.2661 128.06L24.2661 129.618L35.0961 129.618L35.0961 126.844L29.5291 125.248L29.5291 124.887L35.0961 123.443L35.0961 120.46L24.2661 120.46L24.2661 122.018L33.2151 122.018L33.2151 122.417L27.4961 123.975L27.4961 126.103Z" fill="#8C6741"/>
<path d="M29.6811 143.512C32.8731 143.512 35.3621 141.612 35.3621 138.61C35.3621 135.627 32.8731 133.727 29.6811 133.727C26.5081 133.727 24.0001 135.627 24.0001 138.61C24.0001 141.612 26.5081 143.512 29.6811 143.512ZM29.6811 141.84C27.3821 141.84 25.5201 140.757 25.5201 138.61C25.5201 136.463 27.3821 135.399 29.6811 135.399C31.9801 135.399 33.8611 136.463 33.8611 138.61C33.8611 140.757 31.9801 141.84 29.6811 141.84Z" fill="#8C6741"/>
<path d="M24.2661 156.513L35.0961 156.513L35.0961 155.012L27.2681 155.012L27.2681 154.518L35.0961 150.053L35.0961 147.849L24.2661 147.849L24.2661 149.35L32.6451 149.35L32.6451 149.844L24.2661 154.67L24.2661 156.513Z" fill="#8C6741"/>
<path d="M33.6141 167.082L33.6141 170.711L35.0961 170.711L35.0961 160.793L33.6141 160.793L33.6141 164.441L33.1201 164.935L24.2661 164.935L24.2661 166.569L33.1201 166.569L33.6141 167.082Z" fill="#8C6741"/>
<path d="M24.2661 182.895L24.2661 184.624L35.0961 180.349L35.0961 178.316L24.2661 174.022L24.2661 175.732L27.4391 176.929L27.4391 181.698L24.2661 182.895ZM28.8261 177.879L29.1301 177.575L33.0441 179.057L33.0441 179.57L29.1491 181.052L28.8261 180.729L28.8261 177.879Z" fill="#8C6741"/>
<path d="M24.2661 197.226L35.0961 197.226L35.0961 195.725L27.2681 195.725L27.2681 195.231L35.0961 190.766L35.0961 188.562L24.2661 188.562L24.2661 190.063L32.6451 190.063L32.6451 190.557L24.2661 195.383L24.2661 197.226Z" fill="#8C6741"/>
<path d="M24.2661 210.037L24.2661 211.766L35.0961 207.491L35.0961 205.458L24.2661 201.164L24.2661 202.874L27.4391 204.071L27.4391 208.84L24.2661 210.037ZM28.8261 205.021L29.1301 204.717L33.0441 206.199L33.0441 206.712L29.1491 208.194L28.8261 207.871L28.8261 205.021Z" fill="#8C6741"/>
<path d="M1.50106 5.22426C1.50106 3.68526 2.09006 2.20326 3.09706 1.12026L1.72906 0.170256C0.62706 1.34826 6.08932e-05 3.24826 6.08068e-05 5.22426C6.06955e-05 7.77026 1.36806 9.57526 3.36306 9.57526C4.99706 9.57526 5.87106 8.39726 6.27006 6.80126L6.95406 4.14126C7.20106 3.11526 7.50506 2.41226 8.34106 2.41226C9.31006 2.41226 9.88006 3.36226 9.88006 4.82526C9.88006 6.04126 9.44306 7.29526 8.45506 8.39726L9.70906 9.40426C10.7541 8.16926 11.3621 6.64926 11.3621 4.93926C11.3621 2.50726 10.0701 0.816257 8.24606 0.816257C6.55506 0.816257 5.83306 2.03226 5.41506 3.81826L4.76906 6.47826C4.56006 7.31426 4.18006 7.97926 3.24906 7.97926C2.10906 7.97926 1.50106 6.74426 1.50106 5.22426Z" fill="#8C6741"/>
<path d="M9.61406 19.9732L9.61406 23.6022L11.0961 23.6022L11.0961 13.6842L9.61406 13.6842L9.61406 17.3322L9.12006 17.8262L0.266059 17.8262L0.266059 19.4602L9.12006 19.4602L9.61406 19.9732Z" fill="#8C6741"/>
<path d="M4.57906 29.7821L4.57906 32.1571L0.266058 35.2541L0.266058 37.1731L4.37006 34.1901L4.76906 34.1901C5.16806 35.8621 6.21306 36.7551 7.82806 36.7551C9.93706 36.7551 11.0961 35.2161 11.0961 32.4231L11.0961 28.1861L0.266059 28.1861L0.266059 29.7821L4.57906 29.7821ZM9.63306 32.3851C9.63306 34.2471 8.98706 35.1211 7.82806 35.1211C6.70706 35.1211 6.06106 34.2471 6.06106 32.3851L6.06106 29.7821L9.12006 29.7821L9.63306 30.2951L9.63306 32.3851Z" fill="#8C6741"/>
<path d="M2.26106 43.448L5.11106 43.448L5.11106 49.205L6.59306 49.205L6.59306 43.448L9.12006 43.448L9.61406 43.942L9.61406 50.041L11.0961 50.041L11.0961 41.852L0.266058 41.852L0.266058 50.231L1.74806 50.231L1.74806 43.942L2.26106 43.448Z" fill="#8C6741"/>
<path d="M2.26106 57.0189L5.11106 57.0189L5.11106 62.7759L6.59306 62.7759L6.59306 57.0189L9.12006 57.0189L9.61406 57.5129L9.61406 63.6118L11.0961 63.6118L11.0961 55.4229L0.266057 55.4229L0.266057 63.8018L1.74806 63.8018L1.74806 57.5129L2.26106 57.0189Z" fill="#8C6741"/>
<path d="M9.61406 74.2568L9.61406 77.8857L11.0961 77.8857L11.0961 67.9677L9.61406 67.9677L9.61406 71.6158L9.12006 72.1097L0.266057 72.1097L0.266057 73.7437L9.12006 73.7438L9.61406 74.2568Z" fill="#8C6741"/>
<path d="M3.49605 101.133L9.21506 102.71L9.21506 103.09L0.266055 103.09L0.266055 104.648L11.0961 104.648L11.0961 101.874L5.52906 100.278L5.52906 99.9165L11.0961 98.4725L11.0961 95.4895L0.266056 95.4895L0.266056 97.0475L9.21506 97.0475L9.21506 97.4465L3.49606 99.0045L3.49605 101.133Z" fill="#8C6741"/>
<path d="M0.266055 117.211L0.266055 118.94L11.0961 114.665L11.0961 112.632L0.266055 108.338L0.266055 110.048L3.43906 111.245L3.43906 116.014L0.266055 117.211ZM4.82606 112.195L5.13005 111.891L9.04405 113.373L9.04405 113.886L5.14905 115.368L4.82606 115.045L4.82606 112.195Z" fill="#8C6741"/>
<path d="M0.266054 130.117L0.266054 131.637L6.02305 131.637L6.02305 127.153L4.61706 127.153L4.61706 130.117L3.13505 130.117C2.26105 129.357 1.52006 128.502 1.52006 127.4C1.52006 125.234 3.40105 124.113 5.68106 124.113C7.96106 124.113 9.80406 125.253 9.80406 127.438C9.80406 128.749 8.98705 129.604 7.69506 130.402L8.70205 131.694C10.4501 130.668 11.3621 129.376 11.3621 127.438C11.3621 124.607 8.98706 122.422 5.68106 122.422C2.50806 122.422 5.56009e-05 124.322 5.54771e-05 127.153C5.54381e-05 128.046 0.361055 129.072 1.19705 129.832L1.00706 130.117L0.266054 130.117Z" fill="#8C6741"/>
<path d="M2.24206 141.579L9.12005 141.579L9.63305 142.073L9.63305 144.676L11.0961 144.676L11.0961 136.905L9.63305 136.905L9.63305 139.489L9.12005 140.002L2.24206 140.002L1.74805 139.489L1.74805 136.905L0.266054 136.905L0.266054 144.676L1.74805 144.676L1.74805 142.073L2.24206 141.579Z" fill="#8C6741"/>
<path d="M5.68105 151.464C7.96105 151.464 9.80406 152.585 9.80406 154.77C9.80406 156.081 8.98705 156.936 7.69505 157.734L8.70205 159.045C10.4501 158.019 11.3621 156.727 11.3621 154.789C11.3621 151.939 9.00605 149.792 5.68105 149.792C2.35605 149.792 5.43937e-05 151.939 5.42691e-05 154.789C5.41844e-05 156.727 0.912053 158.019 2.66005 159.045L3.66705 157.734C2.37505 156.936 1.57705 156.081 1.57705 154.77C1.57705 152.585 3.42005 151.464 5.68105 151.464Z" fill="#8C6741"/>
<path d="M2.24205 168.721L9.12005 168.721L9.63305 169.215L9.63305 171.818L11.0961 171.818L11.0961 164.047L9.63305 164.047L9.63305 166.631L9.12005 167.144L2.24205 167.144L1.74805 166.631L1.74805 164.047L0.266053 164.047L0.266052 171.818L1.74805 171.818L1.74805 169.215L2.24205 168.721Z" fill="#8C6741"/>
<path d="M0.266052 185.066L0.266052 186.795L11.0961 182.52L11.0961 180.487L0.266052 176.193L0.266052 177.903L3.43905 179.1L3.43905 183.869L0.266052 185.066ZM4.82605 180.05L5.13005 179.746L9.04405 181.228L9.04405 181.741L5.14905 183.223L4.82605 182.9L4.82605 180.05Z" fill="#8C6741"/>
<path d="M0.266051 199.397L11.0961 199.397L11.0961 197.896L3.26805 197.896L3.26805 197.402L11.0961 192.937L11.0961 190.733L0.266052 190.733L0.266051 192.234L8.64505 192.234L8.64505 192.728L0.266051 197.554L0.266051 199.397Z" fill="#8C6741"/>
</svg>
